<svg width="23" height="17" viewBox="0 0 23 17" xmlns="http://www.w3.org/2000/svg" xmlns:xlink="http://www.w3.org/1999/xlink"><title>AL</title><defs><linearGradient x1="50%" y1="0%" x2="50%" y2="100%" id="c"><stop stop-color="#FFF" offset="0%"/><stop stop-color="#F0F0F0" offset="100%"/></linearGradient><rect id="a" width="21" height="15" rx="1.5"/><filter x="-50%" y="-50%" width="200%" height="200%" filterUnits="objectBoundingBox" id="b"><feOffset dy=".5" in="SourceAlpha" result="shadowOffsetOuter1"/><feGaussianBlur stdDeviation=".5" in="shadowOffsetOuter1" result="shadowBlurOuter1"/><feColorMatrix values="0 0 0 0 0 0 0 0 0 0 0 0 0 0 0 0 0 0 0.16 0" in="shadowBlurOuter1"/></filter><linearGradient x1="50%" y1="0%" x2="50%" y2="100%" id="d"><stop stop-color="#EE343B" offset="0%"/><stop stop-color="#E2222A" offset="100%"/></linearGradient><linearGradient x1="50%" y1="0%" x2="50%" y2="100%" id="f"><stop stop-color="#262626" offset="0%"/><stop stop-color="#0C0C0C" offset="100%"/></linearGradient></defs><g transform="translate(1 1)" fill="none" fill-rule="evenodd"><mask id="e" fill="#fff"><use xlink:href="#a"/></mask><use fill="#000" filter="url(#b)" xlink:href="#a"/><use fill="url(#c)" xlink:href="#a"/><path fill="url(#d)" mask="url(#e)" d="M0 0h21v15H0z"/><path d="M9.35 3.35a.63.63 0 0 0-.76-.08l-.68.46c-.23.15-.21.37.03.5l1.12.55a.9.9 0 0 1 .44.72.5.5 0 0 1-.5.5c-.28 0-.7-.1-.94-.22l-1.12-.56a.73.73 0 0 0-.79.13l-.3.3c-.2.2-.15.45.1.57l1.1.56c.25.12.27.34.04.5l-.68.45c-.23.15-.2.31.07.37l1.54.3c.26.06.3.24.08.4l-1.2.9c-.22.16-.17.3.1.3.28 0 .71-.05.98-.12l1.04-.26c.26-.07.36.06.2.29l-.45.68c-.15.23-.05.41.24.41h.48c.28 0 .58.2.67.47l.18.56c.09.26.23.26.32 0l.18-.56a.74.74 0 0 1 .67-.47h.48c.28 0 .39-.18.24-.41l-.46-.68c-.15-.23-.06-.36.21-.29l1.04.26c.26.07.71.12.98.12.28 0 .32-.14.1-.3l-1.2-.9c-.22-.16-.19-.34.08-.4l1.54-.3c.26-.06.3-.22.07-.37l-.68-.46c-.23-.15-.21-.37.03-.5l1.12-.55c.24-.12.28-.38.09-.57l-.3-.3a.73.73 0 0 0-.8-.13l-1.1.56c-.25.12-.68.22-.95.22a.5.5 0 0 1-.5-.5c0-.28.2-.6.45-.73L13.5 4l-1.09-.73a.63.63 0 0 0-.76.08l-.8.8a.5.5 0 0 1-.7 0l-.8-.8z" fill="url(#f)" mask="url(#e)"/><rect mask="url(#e)" width="21" height="15" rx="1.5"/></g></svg>