<svg width="23" height="17" viewBox="0 0 23 17" xmlns="http://www.w3.org/2000/svg" xmlns:xlink="http://www.w3.org/1999/xlink"><title>BB</title><defs><linearGradient x1="50%" y1="0%" x2="50%" y2="100%" id="c"><stop stop-color="#FFF" offset="0%"/><stop stop-color="#F0F0F0" offset="100%"/></linearGradient><rect id="a" width="21" height="15" rx="1.5"/><filter x="-50%" y="-50%" width="200%" height="200%" filterUnits="objectBoundingBox" id="b"><feOffset dy=".5" in="SourceAlpha" result="shadowOffsetOuter1"/><feGaussianBlur stdDeviation=".5" in="shadowOffsetOuter1" result="shadowBlurOuter1"/><feColorMatrix values="0 0 0 0 0 0 0 0 0 0 0 0 0 0 0 0 0 0 0.16 0" in="shadowBlurOuter1"/></filter><linearGradient x1="50%" y1="0%" x2="50%" y2="100%" id="d"><stop stop-color="#1031C7" offset="0%"/><stop stop-color="#0522A5" offset="100%"/></linearGradient><linearGradient x1="50%" y1="0%" x2="50%" y2="100%" id="f"><stop stop-color="#08369D" offset="0%"/><stop stop-color="#042A7D" offset="100%"/></linearGradient><linearGradient x1="50%" y1="0%" x2="50%" y2="100%" id="i"><stop stop-color="#FFCC50" offset="0%"/><stop stop-color="#FFC63C" offset="100%"/></linearGradient><path id="h" d="M7 0h7v15H7z"/><filter x="-50%" y="-50%" width="200%" height="200%" filterUnits="objectBoundingBox" id="g"><feMorphology radius=".25" operator="dilate" in="SourceAlpha" result="shadowSpreadOuter1"/><feOffset in="shadowSpreadOuter1" result="shadowOffsetOuter1"/><feColorMatrix values="0 0 0 0 0 0 0 0 0 0 0 0 0 0 0 0 0 0 0.06 0" in="shadowOffsetOuter1"/></filter><linearGradient x1="50%" y1="0%" x2="50%" y2="100%" id="j"><stop stop-color="#262626" offset="0%"/><stop stop-color="#0C0C0C" offset="100%"/></linearGradient></defs><g transform="translate(1 1)" fill="none" fill-rule="evenodd"><mask id="e" fill="#fff"><use xlink:href="#a"/></mask><use fill="#000" filter="url(#b)" xlink:href="#a"/><use fill="url(#c)" xlink:href="#a"/><path fill="url(#d)" mask="url(#e)" d="M0 0h21v15H0z"/><path fill="url(#f)" mask="url(#e)" d="M10 0h11v15H10zM0 0h7v15H0z"/><g mask="url(#e)"><use fill="#000" filter="url(#g)" xlink:href="#h"/><use fill="url(#i)" xlink:href="#h"/></g><path d="M10.38 4.7c.08-.1.2-.1.28 0l.7 1.1c.08.1.02.2-.11.2H11c-.14 0-.24.1-.23.25l.2 2a.3.3 0 0 0 .28.25.7.7 0 0 0 .43-.18l.14-.14c.1-.1.18-.28.18-.43v-.5a.7.7 0 0 0-.18-.43l-.14-.14c-.1-.1-.08-.21.05-.26l1.04-.34c.13-.05.21.03.18.17l-.36 2a.92.92 0 0 1-.23.42l-.68.66a.7.7 0 0 1-.43.17c-.14 0-.25.1-.25.25v.5c0 .14-.1.25-.25.25h-.5a.25.25 0 0 1-.25-.25v-.5a.25.25 0 0 0-.25-.25.69.69 0 0 1-.42-.17l-.66-.66a.96.96 0 0 1-.22-.42l-.4-2c-.03-.14.05-.22.18-.17l1.04.34c.13.05.15.16.05.26l-.14.14a.7.7 0 0 0-.18.43v.5c0 .14.08.33.18.43l.14.14c.1.1.3.18.43.18.14 0 .26-.1.27-.25l.2-2A.23.23 0 0 0 10 6h-.25c-.14 0-.18-.1-.1-.2l.73-1.1z" fill="url(#j)" mask="url(#e)"/><rect mask="url(#e)" width="21" height="15" rx="1.5"/></g></svg>