<svg width="23" height="17" viewBox="0 0 23 17" xmlns="http://www.w3.org/2000/svg" xmlns:xlink="http://www.w3.org/1999/xlink"><title>CAF</title><defs><linearGradient x1="50%" y1="0%" x2="50%" y2="100%" id="c"><stop stop-color="#FFF" offset="0%"/><stop stop-color="#F0F0F0" offset="100%"/></linearGradient><rect id="a" width="21" height="15" rx="1.5"/><filter x="-50%" y="-50%" width="200%" height="200%" filterUnits="objectBoundingBox" id="b"><feOffset dy=".5" in="SourceAlpha" result="shadowOffsetOuter1"/><feGaussianBlur stdDeviation=".5" in="shadowOffsetOuter1" result="shadowBlurOuter1"/><feColorMatrix values="0 0 0 0 0 0 0 0 0 0 0 0 0 0 0 0 0 0 0.16 0" in="shadowBlurOuter1"/></filter><linearGradient x1="50%" y1="0%" x2="50%" y2="100%" id="d"><stop stop-color="#19BFBF" offset="0%"/><stop stop-color="#10ACAC" offset="100%"/></linearGradient><path d="M6.04 4.26a.57.57 0 0 1 .13-.43l1.66-1.66A.7.7 0 0 1 8.25 2h1c.14 0 .3.1.37.23l.26.54c.07.13.23.23.37.23h1.5c.14 0 .3.1.36.22l1.28 2.56c.06.12.23.22.36.22h1c.14 0 .19.09.1.2l-1.2 1.6-.27.43-.26.54c-.07.13-.12.34-.12.48v.5c0 .14-.05.34-.12.48l-.26.54-.24.46-.26.54-.24.46-.26.54a.44.44 0 0 1-.37.23h-.5c-.14 0-.3-.1-.37-.23l-.26-.54a1.3 1.3 0 0 1-.12-.49V9.26a.7.7 0 0 0-.18-.44l-.14-.14c-.1-.1-.21-.28-.26-.41l-.34-1.04A.36.36 0 0 0 8.75 7h-2a.31.31 0 0 1-.3-.26l-.4-2.48z" id="g"/><filter x="-50%" y="-50%" width="200%" height="200%" filterUnits="objectBoundingBox" id="f"><feOffset dy=".5" in="SourceAlpha" result="shadowOffsetOuter1"/><feColorMatrix values="0 0 0 0 0 0 0 0 0 0 0 0 0 0 0 0 0 0 0.06 0" in="shadowOffsetOuter1"/></filter><path d="M14 10.25c0-.14.1-.25.25-.25h.5c.14 0 .25.1.25.25v.5c0 .14-.05.34-.12.48l-.26.54a.46.46 0 0 1-.37.23.25.25 0 0 1-.25-.25v-1.5z" id="i"/><filter x="-50%" y="-50%" width="200%" height="200%" filterUnits="objectBoundingBox" id="h"><feOffset dy=".5" in="SourceAlpha" result="shadowOffsetOuter1"/><feColorMatrix values="0 0 0 0 0 0 0 0 0 0 0 0 0 0 0 0 0 0 0.06 0" in="shadowOffsetOuter1"/></filter></defs><g transform="translate(1 1)" fill="none" fill-rule="evenodd"><mask id="e" fill="#fff"><use xlink:href="#a"/></mask><use fill="#000" filter="url(#b)" xlink:href="#a"/><use fill="url(#c)" xlink:href="#a"/><path fill="url(#d)" mask="url(#e)" d="M0 0h21v15H0z"/><g mask="url(#e)"><use fill="#000" filter="url(#f)" xlink:href="#g"/><use fill="url(#c)" xlink:href="#g"/></g><g mask="url(#e)"><use fill="#000" filter="url(#h)" xlink:href="#i"/><use fill="url(#c)" xlink:href="#i"/></g><rect mask="url(#e)" width="21" height="15" rx="1.5"/></g></svg>