<svg width="23" height="17" viewBox="0 0 23 17" xmlns="http://www.w3.org/2000/svg" xmlns:xlink="http://www.w3.org/1999/xlink"><title>CAS</title><defs><linearGradient x1="50%" y1="0%" x2="50%" y2="100%" id="c"><stop stop-color="#FFF" offset="0%"/><stop stop-color="#F0F0F0" offset="100%"/></linearGradient><rect id="a" width="21" height="15" rx="1.5"/><filter x="-50%" y="-50%" width="200%" height="200%" filterUnits="objectBoundingBox" id="b"><feOffset dy=".5" in="SourceAlpha" result="shadowOffsetOuter1"/><feGaussianBlur stdDeviation=".5" in="shadowOffsetOuter1" result="shadowBlurOuter1"/><feColorMatrix values="0 0 0 0 0 0 0 0 0 0 0 0 0 0 0 0 0 0 0.16 0" in="shadowBlurOuter1"/></filter><linearGradient x1="50%" y1="0%" x2="50%" y2="100%" id="d"><stop stop-color="#19BFBF" offset="0%"/><stop stop-color="#10ACAC" offset="100%"/></linearGradient><path d="M4.23 6.61a.25.25 0 0 1-.11-.34l.26-.54a.69.69 0 0 0 .04-.46l-.34-1.04c-.05-.13.01-.18.15-.11l.54.26a.8.8 0 0 0 .48.06l1.5-.38.5-.12 1.5-.38c.14-.03.33-.14.42-.23l1.16-1.16c.1-.1.28-.17.42-.17h2c.14 0 .25.1.25.25v.5a.7.7 0 0 1-.18.43l-.14.14c-.1.1-.07.19.07.2l5 .46c.14.01.2.11.13.25l-.26.54a.46.46 0 0 1-.37.23h-1a.69.69 0 0 0-.42.17l-.66.66c-.1.1-.07.2.06.25l1.04.34a.7.7 0 0 1 .35.31l.26.54c.07.13.03.28-.11.35l-.54.26a.25.25 0 0 0-.11.35l.26.54c.07.13 0 .23-.13.23-.14 0-.3-.1-.37-.23l-.26-.54c-.07-.13-.2-.15-.3-.06l-.65.66c-.1.1-.1.25.01.35l.14.14c.1.1.18.29.18.43v.5c0 .14-.1.3-.23.37l-.54.26c-.13.07-.34.12-.48.12h-.5a.7.7 0 0 0-.43.18l-.14.14c-.1.1-.1.26 0 .36l.14.14c.1.1.18.29.18.43v.5c0 .14-.1.2-.23.13l-.54-.26a2 2 0 0 1-.4-.3l-.66-.65c-.1-.1-.22-.26-.29-.4l-.26-.54c-.07-.13-.16-.12-.21 0l-.82 2.04a.4.4 0 0 1-.34.23.53.53 0 0 1-.39-.2l-.72-1.1a.95.95 0 0 1-.14-.45v-.5c0-.14-.1-.28-.25-.31l-1.5-.38c-.14-.03-.25.06-.25.19 0 .14.1.3.23.37l.54.26c.13.07.15.2.05.3l-.14.14-.35.35-.66.66c-.1.1-.26.12-.4.05l-.54-.26a.69.69 0 0 1-.3-.35l-.35-1.04a1.86 1.86 0 0 1-.08-.48.7.7 0 0 1 .18-.43l.14-.14c.1-.1.08-.21-.05-.26l-1.04-.34A.36.36 0 0 1 3 8.75v-.5c0-.14.12-.25.25-.25h1c.14 0 .34.05.48.12l.54.26c.13.07.28.03.35-.11l.26-.54a.26.26 0 0 0-.1-.34L4.22 6.6zM10.5 13a.5.5 0 1 0 0-1 .5.5 0 0 0 0 1zm-3-5a.5.5 0 1 0 0-1 .5.5 0 0 0 0 1zm9.5 2v-.75c0-.14.1-.25.25-.25h.5c.14 0 .16.05.02.12L17 9.5l.5.5-.38.77a.44.44 0 0 1-.37.23h-.5c-.14 0-.17-.08-.08-.17L17 10z" id="g"/><filter x="-50%" y="-50%" width="200%" height="200%" filterUnits="objectBoundingBox" id="f"><feOffset dy=".5" in="SourceAlpha" result="shadowOffsetOuter1"/><feColorMatrix values="0 0 0 0 0 0 0 0 0 0 0 0 0 0 0 0 0 0 0.06 0" in="shadowOffsetOuter1"/></filter></defs><g transform="translate(1 1)" fill="none" fill-rule="evenodd"><mask id="e" fill="#fff"><use xlink:href="#a"/></mask><use fill="#000" filter="url(#b)" xlink:href="#a"/><use fill="url(#c)" xlink:href="#a"/><path fill="url(#d)" mask="url(#e)" d="M0 0h21v15H0z"/><g mask="url(#e)"><use fill="#000" filter="url(#f)" xlink:href="#g"/><use fill="url(#c)" xlink:href="#g"/></g><rect mask="url(#e)" width="21" height="15" rx="1.5"/></g></svg>