<svg width="23" height="17" viewBox="0 0 23 17" xmlns="http://www.w3.org/2000/svg" xmlns:xlink="http://www.w3.org/1999/xlink"><title>CEU</title><defs><linearGradient x1="50%" y1="0%" x2="50%" y2="100%" id="c"><stop stop-color="#FFF" offset="0%"/><stop stop-color="#F0F0F0" offset="100%"/></linearGradient><rect id="a" width="21" height="15" rx="1.5"/><filter x="-50%" y="-50%" width="200%" height="200%" filterUnits="objectBoundingBox" id="b"><feOffset dy=".5" in="SourceAlpha" result="shadowOffsetOuter1"/><feGaussianBlur stdDeviation=".5" in="shadowOffsetOuter1" result="shadowBlurOuter1"/><feColorMatrix values="0 0 0 0 0 0 0 0 0 0 0 0 0 0 0 0 0 0 0.16 0" in="shadowBlurOuter1"/></filter><linearGradient x1="50%" y1="0%" x2="50%" y2="100%" id="d"><stop stop-color="#19BFBF" offset="0%"/><stop stop-color="#10ACAC" offset="100%"/></linearGradient><path d="M13.17 13.33c-.1.1-.25.1-.34 0l-.66-.66c-.1-.1-.2-.27-.25-.4l-.34-1.04a.37.37 0 0 0-.33-.23c-.14 0-.22.1-.19.25l.38 1.5a.5.5 0 0 1-.12.43l-.14.14c-.1.1-.26.1-.36 0l-.14-.14a.69.69 0 0 1-.18-.43v-.5c0-.14-.05-.34-.12-.48l-.26-.54a.46.46 0 0 0-.37-.23h-1c-.14 0-.34.05-.48.12l-.54.26a.69.69 0 0 0-.3.35l-.35 1.04a.67.67 0 0 1-.31.35l-.54.26a.56.56 0 0 1-.46 0l-.54-.26a.44.44 0 0 1-.23-.37v-1.5c0-.14.12-.25.25-.25h1c.14 0 .25-.1.25-.25v-.5c0-.14.03-.35.08-.48l.34-1.04a.36.36 0 0 1 .33-.23h.5c.14 0 .34-.05.48-.12l.54-.26c.13-.07.34-.12.48-.12h.5c.14 0 .25-.12.25-.25a.7.7 0 0 1 .18-.43l.14-.14c.1-.1.23-.09.3.05l.26.54c.07.13.24.23.37.23h1c.14 0 .28-.1.33-.23l.34-1.04a.36.36 0 0 1 .33-.23h.5c.14 0 .25-.12.25-.25 0-.14-.1-.25-.25-.25h-.5a.25.25 0 0 1-.25-.25v-.5c0-.14.05-.34.12-.48l.26-.54a.38.38 0 0 0-.06-.41l-.14-.14a.25.25 0 0 0-.35 0l-.66.65c-.1.1-.17.28-.17.42v.5c0 .14-.03.35-.08.48l-.34 1.04a.37.37 0 0 1-.33.23.7.7 0 0 1-.43-.18l-.14-.14a.71.71 0 0 1-.18-.43c0-.14-.1-.2-.23-.13l-.54.26a.38.38 0 0 1-.41-.06l-.14-.14A.69.69 0 0 1 9 5.75v-.5a.7.7 0 0 1 .17-.42l.66-.66.34-.34 1.16-1.16c.1-.1.27-.2.4-.25l1.04-.34c.13-.05.34-.08.48-.08h.5c.14 0 .3.1.37.23l.26.54c.07.13.12.35.12.48v1c0 .14.08.33.18.43l.14.14c.1.1.15.28.1.41l-.34 1.04c-.05.13.02.3.13.37l1.08.72c.12.08.3.19.44.26l.54.26c.13.07.16.22.1.33l-.73 1.08a.99.99 0 0 0-.14.46v1c0 .14-.1.28-.23.33l-1.04.34a.67.67 0 0 0-.35.31l-.26.54a2 2 0 0 1-.3.4l-.65.66zM8.5 13a.5.5 0 1 0 0-1 .5.5 0 0 0 0 1zm-2-6a.5.5 0 1 0 0-1 .5.5 0 0 0 0 1z" id="g"/><filter x="-50%" y="-50%" width="200%" height="200%" filterUnits="objectBoundingBox" id="f"><feOffset dy=".5" in="SourceAlpha" result="shadowOffsetOuter1"/><feColorMatrix values="0 0 0 0 0 0 0 0 0 0 0 0 0 0 0 0 0 0 0.06 0" in="shadowOffsetOuter1"/></filter><path d="M7.38 6.73c.07-.13.12-.35.12-.48 0-.14-.05-.34-.12-.48l-.26-.54C7.05 5.1 7.1 5 7.25 5h.5c.14 0 .25.12.25.25v1c0 .14.05.34.12.48l.26.54c.07.13 0 .23-.13.23h-1c-.14 0-.2-.1-.13-.23l.26-.54z" id="i"/><filter x="-50%" y="-50%" width="200%" height="200%" filterUnits="objectBoundingBox" id="h"><feOffset dy=".5" in="SourceAlpha" result="shadowOffsetOuter1"/><feColorMatrix values="0 0 0 0 0 0 0 0 0 0 0 0 0 0 0 0 0 0 0.06 0" in="shadowOffsetOuter1"/></filter></defs><g transform="translate(1 1)" fill="none" fill-rule="evenodd"><mask id="e" fill="#fff"><use xlink:href="#a"/></mask><use fill="#000" filter="url(#b)" xlink:href="#a"/><use fill="url(#c)" xlink:href="#a"/><path fill="url(#d)" mask="url(#e)" d="M0 0h21v15H0z"/><g mask="url(#e)"><use fill="#000" filter="url(#f)" xlink:href="#g"/><use fill="url(#c)" xlink:href="#g"/></g><g mask="url(#e)"><use fill="#000" filter="url(#h)" xlink:href="#i"/><use fill="url(#c)" xlink:href="#i"/></g><rect mask="url(#e)" width="21" height="15" rx="1.5"/></g></svg>