<svg width="23" height="17" viewBox="0 0 23 17" xmlns="http://www.w3.org/2000/svg" xmlns:xlink="http://www.w3.org/1999/xlink"><title>CNA</title><defs><linearGradient x1="50%" y1="0%" x2="50%" y2="100%" id="c"><stop stop-color="#FFF" offset="0%"/><stop stop-color="#F0F0F0" offset="100%"/></linearGradient><rect id="a" width="21" height="15" rx="1.5"/><filter x="-50%" y="-50%" width="200%" height="200%" filterUnits="objectBoundingBox" id="b"><feOffset dy=".5" in="SourceAlpha" result="shadowOffsetOuter1"/><feGaussianBlur stdDeviation=".5" in="shadowOffsetOuter1" result="shadowBlurOuter1"/><feColorMatrix values="0 0 0 0 0 0 0 0 0 0 0 0 0 0 0 0 0 0 0.16 0" in="shadowBlurOuter1"/></filter><linearGradient x1="50%" y1="0%" x2="50%" y2="100%" id="d"><stop stop-color="#19BFBF" offset="0%"/><stop stop-color="#10ACAC" offset="100%"/></linearGradient><path d="M11.12 12.23l-.24-.46-.26-.54a.46.46 0 0 0-.37-.23.71.71 0 0 1-.42-.17L8.17 9.17A.67.67 0 0 1 8 8.75v-.5a.7.7 0 0 0-.17-.42l-.66-.66a.96.96 0 0 1-.23-.42l-.38-1.5a.5.5 0 0 0-.3-.33l-1.03-.34a4.1 4.1 0 0 1-.46-.2l-.54-.26A.44.44 0 0 1 4 3.75v-.5c0-.14.1-.25.25-.25h.5a.7.7 0 0 1 .43.18l.14.14c.1.1.29.18.43.18h.5a.7.7 0 0 0 .43-.18l.14-.14A.7.7 0 0 1 7.25 3h1.5c.14 0 .34.05.48.12l.54.26c.13.07.34.12.48.12h.5c.14 0 .34-.05.48-.12l.54-.26c.13-.07.34-.12.48-.12h1.5c.14 0 .25.1.25.25v.5c0 .14-.1.25-.25.25h-.5a.25.25 0 0 0-.25.25v1c0 .14.1.3.23.37l.54.26c.13.07.23 0 .23-.13v-1c0-.14.12-.25.25-.25h1c.14 0 .25.12.25.25 0 .14.12.25.25.25h1c.14 0 .25.1.25.25v.5c0 .14-.03.35-.08.48l-.34 1.04c-.05.13-.16.31-.25.4l-1.16 1.16c-.1.1-.22.26-.29.4l-.26.54c-.07.13-.12.34-.12.48v.5c0 .14-.12.25-.25.25-.14 0-.3-.1-.37-.23l-.26-.54a.46.46 0 0 0-.37-.23h-1c-.14 0-.3.1-.37.23l-.26.54a.56.56 0 0 0 0 .46l.26.54c.07.13.23.23.37.23h.5a.7.7 0 0 1 .42.17l.66.66c.1.1.17.28.17.42v.5c0 .14-.1.25-.25.25h-.5c-.14 0-.3-.1-.37-.23l-.26-.54a.44.44 0 0 0-.37-.23h-.5c-.14 0-.3-.1-.37-.23l-.26-.54z" id="g"/><filter x="-50%" y="-50%" width="200%" height="200%" filterUnits="objectBoundingBox" id="f"><feOffset dy=".5" in="SourceAlpha" result="shadowOffsetOuter1"/><feColorMatrix values="0 0 0 0 0 0 0 0 0 0 0 0 0 0 0 0 0 0 0.06 0" in="shadowOffsetOuter1"/></filter></defs><g fill="none" fill-rule="evenodd"><g transform="translate(1 1)"><mask id="e" fill="#fff"><use xlink:href="#a"/></mask><use fill="#000" filter="url(#b)" xlink:href="#a"/><use fill="url(#c)" xlink:href="#a"/><path fill="url(#d)" mask="url(#e)" d="M0 0h21v15H0z"/><rect mask="url(#e)" width="21" height="15" rx="1.5"/></g><use fill="#000" filter="url(#f)" xlink:href="#g"/><use fill="url(#c)" xlink:href="#g"/></g></svg>