<svg width="23" height="17" viewBox="0 0 23 17" xmlns="http://www.w3.org/2000/svg" xmlns:xlink="http://www.w3.org/1999/xlink"><title>COC</title><defs><linearGradient x1="50%" y1="0%" x2="50%" y2="100%" id="c"><stop stop-color="#FFF" offset="0%"/><stop stop-color="#F0F0F0" offset="100%"/></linearGradient><rect id="a" width="21" height="15" rx="1.5"/><filter x="-50%" y="-50%" width="200%" height="200%" filterUnits="objectBoundingBox" id="b"><feOffset dy=".5" in="SourceAlpha" result="shadowOffsetOuter1"/><feGaussianBlur stdDeviation=".5" in="shadowOffsetOuter1" result="shadowBlurOuter1"/><feColorMatrix values="0 0 0 0 0 0 0 0 0 0 0 0 0 0 0 0 0 0 0.16 0" in="shadowBlurOuter1"/></filter><linearGradient x1="50%" y1="0%" x2="50%" y2="100%" id="d"><stop stop-color="#19BFBF" offset="0%"/><stop stop-color="#10ACAC" offset="100%"/></linearGradient><path d="M9.8 2.65a.89.89 0 0 1 .45-.15c.14 0 .3.1.37.23l.26.54c.07.13.24.23.37.23h1c.14 0 .3-.1.37-.23l.26-.54a.38.38 0 0 0-.06-.41l-.14-.14c-.1-.1-.07-.18.07-.18h.5c.14 0 .3.1.38.21l1.24 2.08.27.43 1.72 2.56c.08.12.14.33.14.47v1.5a1 1 0 0 1-.14.47l-1.72 2.56a.52.52 0 0 1-.39.22h-1.5a.8.8 0 0 1-.45-.16l-2.6-2.18a.8.8 0 0 0-.45-.16h-1.5c-.14 0-.35.05-.47.1l-2.56 1.3a.36.36 0 0 1-.4-.07l-.65-.66a.7.7 0 0 1-.17-.42v-1a.99.99 0 0 0-.14-.46l-.72-1.08a.5.5 0 0 1-.03-.44l.78-1.54a.91.91 0 0 1 .34-.34l1.54-.78c.13-.06.34-.14.48-.17l1.5-.38c.14-.03.34-.12.45-.2l1.6-1.21zM13.5 13h1l-.32.32c-.1.1-.26.1-.36 0L13.5 13z" id="g"/><filter x="-50%" y="-50%" width="200%" height="200%" filterUnits="objectBoundingBox" id="f"><feOffset dy=".5" in="SourceAlpha" result="shadowOffsetOuter1"/><feColorMatrix values="0 0 0 0 0 0 0 0 0 0 0 0 0 0 0 0 0 0 0.06 0" in="shadowOffsetOuter1"/></filter></defs><g transform="translate(1 1)" fill="none" fill-rule="evenodd"><mask id="e" fill="#fff"><use xlink:href="#a"/></mask><use fill="#000" filter="url(#b)" xlink:href="#a"/><use fill="url(#c)" xlink:href="#a"/><path fill="url(#d)" mask="url(#e)" d="M0 0h21v15H0z"/><rect mask="url(#e)" width="21" height="15" rx="1.5"/><g mask="url(#e)"><use fill="#000" filter="url(#f)" xlink:href="#g"/><use fill="url(#c)" xlink:href="#g"/></g></g></svg>