<svg width="23" height="17" viewBox="0 0 23 17" xmlns="http://www.w3.org/2000/svg" xmlns:xlink="http://www.w3.org/1999/xlink"><title>CSA</title><defs><linearGradient x1="50%" y1="0%" x2="50%" y2="100%" id="c"><stop stop-color="#FFF" offset="0%"/><stop stop-color="#F0F0F0" offset="100%"/></linearGradient><rect id="a" width="21" height="15" rx="1.5"/><filter x="-50%" y="-50%" width="200%" height="200%" filterUnits="objectBoundingBox" id="b"><feOffset dy=".5" in="SourceAlpha" result="shadowOffsetOuter1"/><feGaussianBlur stdDeviation=".5" in="shadowOffsetOuter1" result="shadowBlurOuter1"/><feColorMatrix values="0 0 0 0 0 0 0 0 0 0 0 0 0 0 0 0 0 0 0.16 0" in="shadowBlurOuter1"/></filter><linearGradient x1="50%" y1="0%" x2="50%" y2="100%" id="d"><stop stop-color="#19BFBF" offset="0%"/><stop stop-color="#10ACAC" offset="100%"/></linearGradient><path d="M7.5 12.25c0-.14.03-.36.06-.5l.38-1.5.12-.5.38-1.5a.99.99 0 0 0-.02-.48l-.34-1.04a.67.67 0 0 0-.31-.35l-.54-.26A.44.44 0 0 1 7 5.75v-1.5c0-.14.05-.34.12-.48l.26-.54.24-.46.26-.54A.46.46 0 0 1 8.26 2h2.48c.15 0 .26.1.26.25v.5c0 .14.1.25.25.25h.5c.14 0 .25.1.25.25v.5c0 .14.1.3.23.36l1.54.78c.13.06.23.22.23.36v.5c0 .14-.05.34-.12.48l-.26.54c-.07.13-.22.3-.33.37l-1.08.72c-.12.08-.26.25-.32.37l-.78 1.54c-.06.13-.2.3-.32.37l-1.08.72c-.12.08-.26.25-.32.37l-.78 1.54a.44.44 0 0 1-.36.23h-.5a.25.25 0 0 1-.25-.25v-.5z" id="g"/><filter x="-50%" y="-50%" width="200%" height="200%" filterUnits="objectBoundingBox" id="f"><feOffset dy=".5" in="SourceAlpha" result="shadowOffsetOuter1"/><feColorMatrix values="0 0 0 0 0 0 0 0 0 0 0 0 0 0 0 0 0 0 0.06 0" in="shadowOffsetOuter1"/></filter></defs><g transform="translate(1 1)" fill="none" fill-rule="evenodd"><mask id="e" fill="#fff"><use xlink:href="#a"/></mask><use fill="#000" filter="url(#b)" xlink:href="#a"/><use fill="url(#c)" xlink:href="#a"/><path fill="url(#d)" mask="url(#e)" d="M0 0h21v15H0z"/><g mask="url(#e)"><use fill="#000" filter="url(#f)" xlink:href="#g"/><use fill="url(#c)" xlink:href="#g"/></g><rect mask="url(#e)" width="21" height="15" rx="1.5"/></g></svg>