<svg width="23" height="17" viewBox="0 0 23 17" xmlns="http://www.w3.org/2000/svg" xmlns:xlink="http://www.w3.org/1999/xlink"><title>CY</title><defs><linearGradient x1="50%" y1="0%" x2="50%" y2="100%" id="c"><stop stop-color="#FFF" offset="0%"/><stop stop-color="#F0F0F0" offset="100%"/></linearGradient><rect id="a" width="21" height="15" rx="1.5"/><filter x="-50%" y="-50%" width="200%" height="200%" filterUnits="objectBoundingBox" id="b"><feOffset dy=".5" in="SourceAlpha" result="shadowOffsetOuter1"/><feGaussianBlur stdDeviation=".5" in="shadowOffsetOuter1" result="shadowBlurOuter1"/><feColorMatrix values="0 0 0 0 0 0 0 0 0 0 0 0 0 0 0 0 0 0 0.16 0" in="shadowBlurOuter1"/></filter><linearGradient x1="50%" y1="0%" x2="50%" y2="100%" id="d"><stop stop-color="#E7832B" offset="0%"/><stop stop-color="#D7751F" offset="100%"/></linearGradient></defs><g transform="translate(1 1)" fill="none" fill-rule="evenodd"><mask id="e" fill="#fff"><use xlink:href="#a"/></mask><use fill="#000" filter="url(#b)" xlink:href="#a"/><use fill="url(#c)" xlink:href="#a"/><path d="M15.55 2.23c.25-.13.33-.05.18.18l-.46.68c-.15.23-.45.53-.68.68l-.68.46a5.7 5.7 0 0 0-.76.62l.2-.2c-.2.2-.2.5 0 .7l.3.3c.2.2.2.5 0 .7l-.3.3c-.2.2-.54.25-.8.12l-.1-.04a.5.5 0 0 0-.68.22l-.04.1c-.13.25-.44.52-.7.6l-.56.2A4 4 0 0 1 9.5 8a.9.9 0 0 0-.73.45l-.04.1a.5.5 0 0 1-.67.23l-1.12-.56a3.7 3.7 0 0 1-.79-.57l-.3-.3a1.4 1.4 0 0 1-.35-.85c0-.28.23-.5.5-.5h-.5c.28 0 .66-.16.85-.35l.3-.3c.2-.2.58-.35.85-.35.28 0 .57-.2.66-.47l.18-.56a.57.57 0 0 1 .64-.37l1.54.3c.26.06.7.05.96-.02l1.04-.26c.26-.07.67-.22.93-.35l.1-.04.9-.46.1-.04.9-.46.1-.04z" fill="url(#d)" mask="url(#e)"/><circle fill="#445128" mask="url(#e)" cx="10.5" cy="11.5" r=".5"/><path d="M12 11s1.5-.5 2-1.5" stroke="#445128" stroke-linecap="round" opacity=".75" mask="url(#e)"/><path d="M7 11s1.5-.5 2-1.5" stroke="#445128" stroke-linecap="round" opacity=".75" mask="url(#e)" transform="matrix(-1 0 0 1 16 0)"/></g></svg>