<svg width="23" height="17" viewBox="0 0 23 17" xmlns="http://www.w3.org/2000/svg" xmlns:xlink="http://www.w3.org/1999/xlink"><title>ER</title><defs><linearGradient x1="50%" y1="0%" x2="50%" y2="100%" id="d"><stop stop-color="#FFF" offset="0%"/><stop stop-color="#F0F0F0" offset="100%"/></linearGradient><rect id="b" width="21" height="15" rx="1.5"/><filter x="-50%" y="-50%" width="200%" height="200%" filterUnits="objectBoundingBox" id="c"><feOffset dy=".5" in="SourceAlpha" result="shadowOffsetOuter1"/><feGaussianBlur stdDeviation=".5" in="shadowOffsetOuter1" result="shadowBlurOuter1"/><feColorMatrix values="0 0 0 0 0 0 0 0 0 0 0 0 0 0 0 0 0 0 0.16 0" in="shadowBlurOuter1"/></filter><linearGradient x1="50%" y1="0%" x2="50%" y2="100%" id="e"><stop stop-color="#28C53F" offset="0%"/><stop stop-color="#21AC35" offset="100%"/></linearGradient><linearGradient x1="50%" y1="0%" x2="50%" y2="100%" id="g"><stop stop-color="#569DEE" offset="0%"/><stop stop-color="#458BDB" offset="100%"/></linearGradient><linearGradient x1="50%" y1="0%" x2="50%" y2="100%" id="h"><stop stop-color="#F42C56" offset="0%"/><stop stop-color="#E9103D" offset="100%"/></linearGradient><circle id="a" cx="6.5" cy="7.5" r="3.5"/><mask id="i" x="0" y="0" width="7" height="7" fill="#fff"><use xlink:href="#a"/></mask></defs><g transform="translate(1 1)" fill="none" fill-rule="evenodd"><mask id="f" fill="#fff"><use xlink:href="#b"/></mask><use fill="#000" filter="url(#c)" xlink:href="#b"/><use fill="url(#d)" xlink:href="#b"/><path fill="url(#e)" mask="url(#f)" d="M0 0h21v7.5H0z"/><path fill="url(#g)" mask="url(#f)" d="M0 7.5h21v8H0z"/><path fill="url(#h)" mask="url(#f)" d="M0 15l21-7.5L0 0z"/><g mask="url(#f)" stroke-width="2" stroke="#FFC63C"><use mask="url(#i)" xlink:href="#a"/></g><circle fill="#FFC63C" mask="url(#f)" cx="6" cy="6.5" r=".5"/><circle fill="#FFC63C" mask="url(#f)" cx="7" cy="7" r=".5"/><circle fill="#FFC63C" mask="url(#f)" cx="6.5" cy="6" r=".5"/><circle fill="#FFC63C" mask="url(#f)" cx="6" cy="7.5" r=".5"/><circle fill="#FFC63C" mask="url(#f)" cx="7" cy="8" r=".5"/><circle fill="#FFC63C" mask="url(#f)" cx="6" cy="8.5" r=".5"/><circle fill="#FFC63C" mask="url(#f)" cx="7" cy="9" r=".5"/><rect mask="url(#f)" width="21" height="15" rx="1.5"/></g></svg>