<svg width="23" height="17" viewBox="0 0 23 17" xmlns="http://www.w3.org/2000/svg" xmlns:xlink="http://www.w3.org/1999/xlink"><title>EU</title><defs><linearGradient x1="50%" y1="0%" x2="50%" y2="100%" id="c"><stop stop-color="#FFF" offset="0%"/><stop stop-color="#F0F0F0" offset="100%"/></linearGradient><rect id="a" width="21" height="15" rx="1.5"/><filter x="-50%" y="-50%" width="200%" height="200%" filterUnits="objectBoundingBox" id="b"><feOffset dy=".5" in="SourceAlpha" result="shadowOffsetOuter1"/><feGaussianBlur stdDeviation=".5" in="shadowOffsetOuter1" result="shadowBlurOuter1"/><feColorMatrix values="0 0 0 0 0 0 0 0 0 0 0 0 0 0 0 0 0 0 0.16 0" in="shadowBlurOuter1"/></filter><linearGradient x1="50%" y1="0%" x2="50%" y2="100%" id="d"><stop stop-color="#033CAE" offset="0%"/><stop stop-color="#00339A" offset="100%"/></linearGradient><linearGradient x1="50%" y1="0%" x2="50%" y2="100%" id="h"><stop stop-color="#FFD428" offset="0%"/><stop stop-color="#FC0" offset="100%"/></linearGradient><path d="M10.5 3l-.7.2.2-.7-.2-.7.7.2.7-.2-.2.7.2.7-.7-.2zm0 10l-.7.2.2-.7-.2-.7.7.2.7-.2-.2.7.2.7-.7-.2zm5-5l-.7.2.2-.7-.2-.7.7.2.7-.2-.2.7.2.7-.7-.2zm-10 0l-.7.2.2-.7-.2-.7.7.2.7-.2-.2.7.2.7-.7-.2zm9.33-2.5l-.7.2.2-.7-.2-.7.7.2.7-.2-.2.7.2.7-.7-.2zm-8.66 5l-.7.2.2-.7-.2-.7.7.2.7-.2-.2.7.2.7-.7-.2zM13 3.67l-.7.2.2-.7-.2-.7.7.2.7-.2-.2.7.2.7-.7-.2zm-5 8.66l-.7.2.2-.7-.2-.7.7.2.7-.2-.2.7.2.7-.7-.2zm6.83-1.83l-.7.2.2-.7-.2-.7.7.2.7-.2-.2.7.2.7-.7-.2zm-8.66-5l-.7.2.2-.7-.2-.7.7.2.7-.2-.2.7.2.7-.7-.2zM13 12.33l-.7.2.2-.7-.2-.7.7.2.7-.2-.2.7.2.7-.7-.2zM8 3.67l-.7.2.2-.7-.2-.7.7.2.7-.2-.2.7.2.7-.7-.2z" id="g"/><filter x="-50%" y="-50%" width="200%" height="200%" filterUnits="objectBoundingBox" id="f"><feOffset dy=".5" in="SourceAlpha" result="shadowOffsetOuter1"/><feColorMatrix values="0 0 0 0 0 0 0 0 0 0 0 0 0 0 0 0 0 0 0.06 0" in="shadowOffsetOuter1"/></filter></defs><g transform="translate(1 1)" fill="none" fill-rule="evenodd"><mask id="e" fill="#fff"><use xlink:href="#a"/></mask><use fill="#000" filter="url(#b)" xlink:href="#a"/><use fill="url(#c)" xlink:href="#a"/><path fill="url(#d)" mask="url(#e)" d="M0 0h21v15H0z"/><g mask="url(#e)"><use fill="#000" filter="url(#f)" xlink:href="#g"/><use fill="url(#h)" xlink:href="#g"/></g><rect mask="url(#e)" width="21" height="15" rx="1.5"/></g></svg>