<svg width="23" height="17" viewBox="0 0 23 17" xmlns="http://www.w3.org/2000/svg" xmlns:xlink="http://www.w3.org/1999/xlink"><title>FM</title><defs><linearGradient x1="50%" y1="0%" x2="50%" y2="100%" id="c"><stop stop-color="#FFF" offset="0%"/><stop stop-color="#F0F0F0" offset="100%"/></linearGradient><rect id="a" width="21" height="15" rx="1.5"/><filter x="-50%" y="-50%" width="200%" height="200%" filterUnits="objectBoundingBox" id="b"><feOffset dy=".5" in="SourceAlpha" result="shadowOffsetOuter1"/><feGaussianBlur stdDeviation=".5" in="shadowOffsetOuter1" result="shadowBlurOuter1"/><feColorMatrix values="0 0 0 0 0 0 0 0 0 0 0 0 0 0 0 0 0 0 0.16 0" in="shadowBlurOuter1"/></filter><linearGradient x1="50%" y1="0%" x2="50%" y2="100%" id="d"><stop stop-color="#95CEF5" offset="0%"/><stop stop-color="#78B3DC" offset="100%"/></linearGradient><path d="M10.5 4.32l-1.18.8.4-1.37-1.12-.87 1.42-.04.48-1.34.48 1.34 1.42.04-1.12.87.4 1.37-1.18-.8zm0 8l-1.18.8.4-1.37-1.12-.87 1.42-.04.48-1.34.48 1.34 1.42.04-1.12.87.4 1.37-1.18-.8zm4-4l-1.18.8.4-1.37-1.12-.87 1.42-.04.48-1.34.48 1.34 1.42.04-1.12.87.4 1.37-1.18-.8zm-8 0l-1.18.8.4-1.37-1.12-.87 1.42-.04.48-1.34.48 1.34 1.42.04-1.12.87.4 1.37-1.18-.8z" id="g"/><filter x="-50%" y="-50%" width="200%" height="200%" filterUnits="objectBoundingBox" id="f"><feOffset dy=".5" in="SourceAlpha" result="shadowOffsetOuter1"/><feColorMatrix values="0 0 0 0 0 0 0 0 0 0 0 0 0 0 0 0 0 0 0.06 0" in="shadowOffsetOuter1"/></filter></defs><g transform="translate(1 1)" fill="none" fill-rule="evenodd"><mask id="e" fill="#fff"><use xlink:href="#a"/></mask><use fill="#000" filter="url(#b)" xlink:href="#a"/><use fill="url(#c)" xlink:href="#a"/><path fill="url(#d)" mask="url(#e)" d="M0 0h21v15H0z"/><g mask="url(#e)"><use fill="#000" filter="url(#f)" xlink:href="#g"/><use fill="url(#c)" xlink:href="#g"/></g><rect mask="url(#e)" width="21" height="15" rx="1.5"/></g></svg>