<svg width="23" height="17" viewBox="0 0 23 17" xmlns="http://www.w3.org/2000/svg" xmlns:xlink="http://www.w3.org/1999/xlink"><title>GB</title><defs><linearGradient x1="50%" y1="0%" x2="50%" y2="100%" id="c"><stop stop-color="#FFF" offset="0%"/><stop stop-color="#F0F0F0" offset="100%"/></linearGradient><rect id="a" width="21" height="15" rx="1.5"/><filter x="-50%" y="-50%" width="200%" height="200%" filterUnits="objectBoundingBox" id="b"><feOffset dy=".5" in="SourceAlpha" result="shadowOffsetOuter1"/><feGaussianBlur stdDeviation=".5" in="shadowOffsetOuter1" result="shadowBlurOuter1"/><feColorMatrix values="0 0 0 0 0 0 0 0 0 0 0 0 0 0 0 0 0 0 0.16 0" in="shadowBlurOuter1"/></filter><linearGradient x1="50%" y1="0%" x2="50%" y2="100%" id="d"><stop stop-color="#0A17A7" offset="0%"/><stop stop-color="#030E88" offset="100%"/></linearGradient><path d="M8 10.4V16h5v-5.6l8.96 6.04 1.12-1.66L15.99 10H21V5h-5L23.07.22l-1.12-1.66L13 4.61V-1H8v5.6L-.96-1.43-2.08.22 5.01 5H0v5h5l-7.08 4.78 1.12 1.66L8 10.39z" id="g"/><filter x="-50%" y="-50%" width="200%" height="200%" filterUnits="objectBoundingBox" id="f"><feMorphology radius=".25" operator="dilate" in="SourceAlpha" result="shadowSpreadOuter1"/><feOffset in="shadowSpreadOuter1" result="shadowOffsetOuter1"/><feColorMatrix values="0 0 0 0 0 0 0 0 0 0 0 0 0 0 0 0 0 0 0.06 0" in="shadowOffsetOuter1"/></filter><linearGradient x1="50%" y1="0%" x2="50%" y2="100%" id="h"><stop stop-color="#E7273E" offset="0%"/><stop stop-color="#CF152B" offset="100%"/></linearGradient></defs><g transform="translate(1 1)" fill="none" fill-rule="evenodd"><mask id="e" fill="#fff"><use xlink:href="#a"/></mask><use fill="#000" filter="url(#b)" xlink:href="#a"/><use fill="url(#c)" xlink:href="#a"/><path fill="url(#d)" mask="url(#e)" d="M0 0h21v15H0z"/><g mask="url(#e)"><use fill="#000" filter="url(#f)" xlink:href="#g"/><use fill="url(#c)" xlink:href="#g"/></g><path d="M14 4.75l9.5-6.25" stroke="#DB1F35" stroke-width=".5" stroke-linecap="round" mask="url(#e)"/><path d="M15.01 16.01l8.51-5.74" stroke="#DB1F35" stroke-width=".5" stroke-linecap="round" mask="url(#e)" transform="matrix(1 0 0 -1 0 26.29)"/><path d="M6 4.73l-8.88-5.98" stroke="#DB1F35" stroke-width=".5" stroke-linecap="round" mask="url(#e)"/><path d="M6.97 16.73l-9.85-6.53" stroke="#DB1F35" stroke-width=".5" stroke-linecap="round" mask="url(#e)" transform="matrix(1 0 0 -1 0 26.94)"/><path fill="url(#h)" mask="url(#e)" d="M0 9h9v6h3V9h9V6h-9V0H9v6H0z"/></g></svg>