<svg width="23" height="17" viewBox="0 0 23 17" xmlns="http://www.w3.org/2000/svg" xmlns:xlink="http://www.w3.org/1999/xlink"><title>GD</title><defs><linearGradient x1="50%" y1="0%" x2="50%" y2="100%" id="c"><stop stop-color="#FFF" offset="0%"/><stop stop-color="#F0F0F0" offset="100%"/></linearGradient><rect id="a" width="21" height="15" rx="1.5"/><filter x="-50%" y="-50%" width="200%" height="200%" filterUnits="objectBoundingBox" id="b"><feOffset dy=".5" in="SourceAlpha" result="shadowOffsetOuter1"/><feGaussianBlur stdDeviation=".5" in="shadowOffsetOuter1" result="shadowBlurOuter1"/><feColorMatrix values="0 0 0 0 0 0 0 0 0 0 0 0 0 0 0 0 0 0 0.16 0" in="shadowBlurOuter1"/></filter><linearGradient x1="50%" y1="0%" x2="50%" y2="100%" id="g"><stop stop-color="#E42135" offset="0%"/><stop stop-color="#CE1225" offset="100%"/></linearGradient><path id="f" d="M0 0h21v15H0z"/><filter x="-50%" y="-50%" width="200%" height="200%" filterUnits="objectBoundingBox" id="e"><feMorphology radius=".25" operator="dilate" in="SourceAlpha" result="shadowSpreadOuter1"/><feOffset in="shadowSpreadOuter1" result="shadowOffsetOuter1"/><feColorMatrix values="0 0 0 0 0 0 0 0 0 0 0 0 0 0 0 0 0 0 0.06 0" in="shadowOffsetOuter1"/></filter><linearGradient x1="50%" y1="0%" x2="50%" y2="100%" id="i"><stop stop-color="#079C77" offset="0%"/><stop stop-color="#007B5D" offset="100%"/></linearGradient><path id="h" d="M0 0h17v11H0z"/><linearGradient x1="50%" y1="0%" x2="50%" y2="100%" id="m"><stop stop-color="#FFD938" offset="0%"/><stop stop-color="#FDD117" offset="100%"/></linearGradient><path d="M1.3 5.6c.28.45.68.75 1.06.83.21.04-.17-.92 0-1.02.14-.09.82.7.88.54.14-.38.06-.92-.25-1.41-.44-.7-.46-.24-1.64-.74.12.72-.5 1.1-.06 1.8z" id="l"/><filter x="-50%" y="-50%" width="200%" height="200%" filterUnits="objectBoundingBox" id="k"><feOffset dy=".5" in="SourceAlpha" result="shadowOffsetOuter1"/><feColorMatrix values="0 0 0 0 0 0 0 0 0 0 0 0 0 0 0 0 0 0 0.08 0" in="shadowOffsetOuter1"/></filter><linearGradient x1="50%" y1="0%" x2="50%" y2="100%" id="p"><stop stop-color="#FFDA3A" offset="0%"/><stop stop-color="#FDD117" offset="100%"/></linearGradient><path d="M0 0h17L8.5 5.5 0 0zm0 11h17L8.5 5.5 0 11z" id="o"/><filter x="-50%" y="-50%" width="200%" height="200%" filterUnits="objectBoundingBox" id="n"><feMorphology radius=".25" operator="dilate" in="SourceAlpha" result="shadowSpreadOuter1"/><feOffset in="shadowSpreadOuter1" result="shadowOffsetOuter1"/><feColorMatrix values="0 0 0 0 0 0 0 0 0 0 0 0 0 0 0 0 0 0 0.06 0" in="shadowOffsetOuter1"/></filter><linearGradient x1="50%" y1="0%" x2="50%" y2="100%" id="s"><stop stop-color="#E31C30" offset="0%"/><stop stop-color="#CE1225" offset="100%"/></linearGradient><circle id="r" cx="8.5" cy="5.5" r="2.5"/><filter x="-50%" y="-50%" width="200%" height="200%" filterUnits="objectBoundingBox" id="q"><feOffset dy=".5" in="SourceAlpha" result="shadowOffsetOuter1"/><feColorMatrix values="0 0 0 0 0 0 0 0 0 0 0 0 0 0 0 0 0 0 0.08 0" in="shadowOffsetOuter1"/></filter><path id="u" d="M8.5 6.27l-1.18.85.45-1.38-1.17-.86h1.45L8.5 3.5l.45 1.38h1.45l-1.17.86.45 1.38z"/><filter x="-50%" y="-50%" width="200%" height="200%" filterUnits="objectBoundingBox" id="t"><feOffset dy=".5" in="SourceAlpha" result="shadowOffsetOuter1"/><feColorMatrix values="0 0 0 0 0 0 0 0 0 0 0 0 0 0 0 0 0 0 0.08 0" in="shadowOffsetOuter1"/></filter></defs><g transform="translate(1 1)" fill="none" fill-rule="evenodd"><mask id="d" fill="#fff"><use xlink:href="#a"/></mask><use fill="#000" filter="url(#b)" xlink:href="#a"/><use fill="url(#c)" xlink:href="#a"/><g mask="url(#d)"><use fill="#000" filter="url(#e)" xlink:href="#f"/><use fill="url(#g)" xlink:href="#f"/></g><g mask="url(#d)"><g transform="translate(2 2)"><mask id="j" fill="#fff"><use xlink:href="#h"/></mask><use fill="url(#i)" xlink:href="#h"/><g mask="url(#j)"><use fill="#000" filter="url(#k)" xlink:href="#l"/><use fill="url(#m)" xlink:href="#l"/></g><g mask="url(#j)"><use fill="#000" filter="url(#n)" xlink:href="#o"/><use fill="url(#p)" xlink:href="#o"/></g><g mask="url(#j)"><use fill="#000" filter="url(#q)" xlink:href="#r"/><use fill="url(#s)" xlink:href="#r"/></g><g mask="url(#j)"><use fill="#000" filter="url(#t)" xlink:href="#u"/><use fill="url(#m)" xlink:href="#u"/></g></g></g><rect mask="url(#d)" width="21" height="15" rx="1.5"/></g></svg>