<svg width="23" height="17" viewBox="0 0 23 17" xmlns="http://www.w3.org/2000/svg" xmlns:xlink="http://www.w3.org/1999/xlink"><title>GE</title><defs><linearGradient x1="50%" y1="0%" x2="50%" y2="100%" id="c"><stop stop-color="#FFF" offset="0%"/><stop stop-color="#F0F0F0" offset="100%"/></linearGradient><rect id="a" width="21" height="15" rx="1.5"/><filter x="-50%" y="-50%" width="200%" height="200%" filterUnits="objectBoundingBox" id="b"><feOffset dy=".5" in="SourceAlpha" result="shadowOffsetOuter1"/><feGaussianBlur stdDeviation=".5" in="shadowOffsetOuter1" result="shadowBlurOuter1"/><feColorMatrix values="0 0 0 0 0 0 0 0 0 0 0 0 0 0 0 0 0 0 0.16 0" in="shadowBlurOuter1"/></filter><linearGradient x1="50%" y1="0%" x2="50%" y2="100%" id="e"><stop stop-color="#FF2A37" offset="0%"/><stop stop-color="#FD0D1B" offset="100%"/></linearGradient><path d="M9 9H-1V6H9v-7h3v7h10v3H12v7H9V9z" id="f"/><filter x="-50%" y="-50%" width="200%" height="200%" filterUnits="objectBoundingBox" id="g"><feMorphology radius=".5" in="SourceAlpha" result="shadowSpreadInner1"/><feOffset in="shadowSpreadInner1" result="shadowOffsetInner1"/><feComposite in="shadowOffsetInner1" in2="SourceAlpha" operator="arithmetic" k2="-1" k3="1" result="shadowInnerInner1"/><feColorMatrix values="0 0 0 0 0 0 0 0 0 0 0 0 0 0 0 0 0 0 0.06 0" in="shadowInnerInner1"/></filter></defs><g transform="translate(1 1)" fill="none" fill-rule="evenodd"><mask id="d" fill="#fff"><use xlink:href="#a"/></mask><use fill="#000" filter="url(#b)" xlink:href="#a"/><use fill="url(#c)" xlink:href="#a"/><g mask="url(#d)"><use fill="url(#e)" xlink:href="#f"/><use fill="#000" filter="url(#g)" xlink:href="#f"/></g><path d="M16.2 2.7L16 1.5h1l-.2 1.2 1.2-.2v1l-1.2-.2.2 1.2h-1l.2-1.2-1.2.2v-1l1.2.2zm-12 0L4 1.5h1l-.2 1.2L6 2.5v1l-1.2-.2.2 1.2H4l.2-1.2-1.2.2v-1l1.2.2zm0 9L4 10.5h1l-.2 1.2 1.2-.2v1l-1.2-.2.2 1.2H4l.2-1.2-1.2.2v-1l1.2.2zm12 0l-.2-1.2h1l-.2 1.2 1.2-.2v1l-1.2-.2.2 1.2h-1l.2-1.2-1.2.2v-1l1.2.2z" fill="#FD0D1B" mask="url(#d)"/><rect mask="url(#d)" width="21" height="15" rx="1.5"/></g></svg>