<svg width="23" height="17" viewBox="0 0 23 17" xmlns="http://www.w3.org/2000/svg" xmlns:xlink="http://www.w3.org/1999/xlink"><title>HK</title><defs><linearGradient x1="50%" y1="0%" x2="50%" y2="100%" id="c"><stop stop-color="#FFF" offset="0%"/><stop stop-color="#F0F0F0" offset="100%"/></linearGradient><rect id="a" width="21" height="15" rx="1.5"/><filter x="-50%" y="-50%" width="200%" height="200%" filterUnits="objectBoundingBox" id="b"><feOffset dy=".5" in="SourceAlpha" result="shadowOffsetOuter1"/><feGaussianBlur stdDeviation=".5" in="shadowOffsetOuter1" result="shadowBlurOuter1"/><feColorMatrix values="0 0 0 0 0 0 0 0 0 0 0 0 0 0 0 0 0 0 0.16 0" in="shadowBlurOuter1"/></filter><linearGradient x1="50%" y1="0%" x2="50%" y2="100%" id="g"><stop stop-color="#F1371C" offset="0%"/><stop stop-color="#DE290F" offset="100%"/></linearGradient><path id="f" d="M0 0h21v15H0z"/><filter x="-50%" y="-50%" width="200%" height="200%" filterUnits="objectBoundingBox" id="e"><feMorphology radius=".25" operator="dilate" in="SourceAlpha" result="shadowSpreadOuter1"/><feOffset in="shadowSpreadOuter1" result="shadowOffsetOuter1"/><feColorMatrix values="0 0 0 0 0 0 0 0 0 0 0 0 0 0 0 0 0 0 0.06 0" in="shadowOffsetOuter1"/></filter><path d="M12 7.19c.8.5.94.5 1.5.5.46 0 .55-.5 1.5-.5 0-.83-.9-1.5-2-1.5s-2 .67-2 1.5c0 .4.2-.5 1 0zM13.25 7a.25.25 0 1 0 0-.5.25.25 0 0 0 0 .5zm-1.81 1.96c-.23.92-.19 1.05-.01 1.58.14.44.64.37.94 1.28.78-.26 1.15-1.32.8-2.37-.34-1.05-1.25-1.7-2.04-1.44-.39.13.54.04.3.95zM12 10.1a.25.25 0 1 0 .47-.15.25.25 0 0 0-.47.15zM9.58 8.98c-.94.06-1.05.14-1.5.47-.38.27-.16.73-.93 1.29.49.67 1.6.69 2.5.04.9-.65 1.23-1.72.74-2.4-.24-.32.13.53-.81.6zm-.9.89a.25.25 0 1 0 .3.4.25.25 0 0 0-.3-.4zM9 7.2c-.35-.87-.46-.95-.92-1.28-.37-.27-.74.08-1.5-.48-.5.67-.16 1.74.73 2.39.9.65 2.01.63 2.5-.04.24-.33-.46.29-.8-.59zm-1.12-.58a.25.25 0 1 0-.3.4.25.25 0 0 0 .3-.4zm2.62-.52c.72-.6.76-.74.94-1.27.14-.44-.3-.68-.01-1.58-.8-.26-1.7.38-2.05 1.43-.34 1.06.02 2.11.8 2.37.4.13-.4-.35.32-.95zm.2-1.25a.25.25 0 1 0-.47-.15.25.25 0 0 0 .47.15z" id="i"/><filter x="-50%" y="-50%" width="200%" height="200%" filterUnits="objectBoundingBox" id="h"><feOffset dy=".5" in="SourceAlpha" result="shadowOffsetOuter1"/><feColorMatrix values="0 0 0 0 0 0 0 0 0 0 0 0 0 0 0 0 0 0 0.06 0" in="shadowOffsetOuter1"/></filter></defs><g transform="translate(1 1)" fill="none" fill-rule="evenodd"><mask id="d" fill="#fff"><use xlink:href="#a"/></mask><use fill="#000" filter="url(#b)" xlink:href="#a"/><use fill="url(#c)" xlink:href="#a"/><g mask="url(#d)"><use fill="#000" filter="url(#e)" xlink:href="#f"/><use fill="url(#g)" xlink:href="#f"/></g><g mask="url(#d)"><use fill="#000" filter="url(#h)" xlink:href="#i"/><use fill="url(#c)" xlink:href="#i"/></g><rect mask="url(#d)" width="21" height="15" rx="1.5"/></g></svg>