<svg width="23" height="17" viewBox="0 0 23 17" xmlns="http://www.w3.org/2000/svg" xmlns:xlink="http://www.w3.org/1999/xlink"><title>HT</title><defs><linearGradient x1="50%" y1="0%" x2="50%" y2="100%" id="e"><stop stop-color="#FFF" offset="0%"/><stop stop-color="#F0F0F0" offset="100%"/></linearGradient><rect id="c" width="21" height="15" rx="1.5"/><filter x="-50%" y="-50%" width="200%" height="200%" filterUnits="objectBoundingBox" id="d"><feOffset dy=".5" in="SourceAlpha" result="shadowOffsetOuter1"/><feGaussianBlur stdDeviation=".5" in="shadowOffsetOuter1" result="shadowBlurOuter1"/><feColorMatrix values="0 0 0 0 0 0 0 0 0 0 0 0 0 0 0 0 0 0 0.16 0" in="shadowBlurOuter1"/></filter><linearGradient x1="50%" y1="0%" x2="50%" y2="100%" id="i"><stop stop-color="#112EBC" offset="0%"/><stop stop-color="#0620A0" offset="100%"/></linearGradient><path id="h" d="M0 0h21v7H0z"/><filter x="-50%" y="-50%" width="200%" height="200%" filterUnits="objectBoundingBox" id="g"><feMorphology radius=".25" operator="dilate" in="SourceAlpha" result="shadowSpreadOuter1"/><feOffset in="shadowSpreadOuter1" result="shadowOffsetOuter1"/><feColorMatrix values="0 0 0 0 0 0 0 0 0 0 0 0 0 0 0 0 0 0 0.06 0" in="shadowOffsetOuter1"/></filter><linearGradient x1="50%" y1="0%" x2="50%" y2="100%" id="l"><stop stop-color="#E3264A" offset="0%"/><stop stop-color="#D20F34" offset="100%"/></linearGradient><path id="k" d="M0 7h21v8H0z"/><filter x="-50%" y="-50%" width="200%" height="200%" filterUnits="objectBoundingBox" id="j"><feMorphology radius=".25" operator="dilate" in="SourceAlpha" result="shadowSpreadOuter1"/><feOffset in="shadowSpreadOuter1" result="shadowOffsetOuter1"/><feColorMatrix values="0 0 0 0 0 0 0 0 0 0 0 0 0 0 0 0 0 0 0.06 0" in="shadowOffsetOuter1"/></filter><rect id="m" width="7" height="6" rx=".5"/><path d="M0 5l1.1-.55A5 5 0 0 1 3 4h1c.55 0 1.4.2 1.9.45L7 5v1H0V5z" id="a"/><mask id="o" x="0" y="0" width="7" height="2" fill="#fff"><use xlink:href="#a"/></mask><path d="M1 3c0-.27.18-.36.4-.19L3.1 4.2a.7.7 0 0 0 .8 0l1.7-1.4c.23-.17.4-.08.4.2v1.48a.5.5 0 0 1-.5.51h-4a.5.5 0 0 1-.5-.5V3z" id="b"/><mask id="p" x="0" y="0" width="5" height="2.28" fill="#fff"><use xlink:href="#b"/></mask></defs><g transform="translate(1 1)" fill="none" fill-rule="evenodd"><mask id="f" fill="#fff"><use xlink:href="#c"/></mask><use fill="#000" filter="url(#d)" xlink:href="#c"/><use fill="url(#e)" xlink:href="#c"/><g mask="url(#f)"><use fill="#000" filter="url(#g)" xlink:href="#h"/><use fill="url(#i)" xlink:href="#h"/></g><g mask="url(#f)"><use fill="#000" filter="url(#j)" xlink:href="#k"/><use fill="url(#l)" xlink:href="#k"/></g><g mask="url(#f)"><g transform="translate(7 5)"><mask id="n" fill="#fff"><use xlink:href="#m"/></mask><use fill="url(#e)" xlink:href="#m"/><g mask="url(#n)"><use stroke="#366C14" mask="url(#o)" fill="#AABCAE" xlink:href="#a"/></g><circle fill="#D4B872" mask="url(#n)" cx="3.5" cy="2.5" r="1.5"/><g mask="url(#n)"><use stroke="#0D3488" mask="url(#p)" fill="#C28321" xlink:href="#b"/></g><path d="M2.17 1.17c-.1-.1-.06-.17.09-.17h2.48c.15 0 .18.08.09.17L3.67 2.33c-.1.1-.25.09-.34 0L2.17 1.17z" fill="#216C30" mask="url(#n)"/></g></g><rect mask="url(#f)" width="21" height="15" rx="1.5"/></g></svg>