<svg width="23" height="17" viewBox="0 0 23 17" xmlns="http://www.w3.org/2000/svg" xmlns:xlink="http://www.w3.org/1999/xlink"><title>IR</title><defs><linearGradient x1="50%" y1="0%" x2="50%" y2="100%" id="d"><stop stop-color="#FFF" offset="0%"/><stop stop-color="#F0F0F0" offset="100%"/></linearGradient><rect id="b" width="21" height="15" rx="1.5"/><filter x="-50%" y="-50%" width="200%" height="200%" filterUnits="objectBoundingBox" id="c"><feOffset dy=".5" in="SourceAlpha" result="shadowOffsetOuter1"/><feGaussianBlur stdDeviation=".5" in="shadowOffsetOuter1" result="shadowBlurOuter1"/><feColorMatrix values="0 0 0 0 0 0 0 0 0 0 0 0 0 0 0 0 0 0 0.16 0" in="shadowBlurOuter1"/></filter><linearGradient x1="50%" y1="0%" x2="50%" y2="100%" id="h"><stop stop-color="#38BC56" offset="0%"/><stop stop-color="#2B9F45" offset="100%"/></linearGradient><path id="g" d="M0 0h21v5H0z"/><filter x="-50%" y="-50%" width="200%" height="200%" filterUnits="objectBoundingBox" id="f"><feMorphology radius=".25" operator="dilate" in="SourceAlpha" result="shadowSpreadOuter1"/><feOffset in="shadowSpreadOuter1" result="shadowOffsetOuter1"/><feColorMatrix values="0 0 0 0 0 0 0 0 0 0 0 0 0 0 0 0 0 0 0.06 0" in="shadowOffsetOuter1"/></filter><linearGradient x1="50%" y1="0%" x2="50%" y2="100%" id="k"><stop stop-color="#DF1B26" offset="0%"/><stop stop-color="#D80915" offset="100%"/></linearGradient><path id="j" d="M0 10h21v5H0z"/><filter x="-50%" y="-50%" width="200%" height="200%" filterUnits="objectBoundingBox" id="i"><feMorphology radius=".25" operator="dilate" in="SourceAlpha" result="shadowSpreadOuter1"/><feOffset in="shadowSpreadOuter1" result="shadowOffsetOuter1"/><feColorMatrix values="0 0 0 0 0 0 0 0 0 0 0 0 0 0 0 0 0 0 0.06 0" in="shadowOffsetOuter1"/></filter><path id="m" d="M0 5h21v5H0z"/><filter x="-50%" y="-50%" width="200%" height="200%" filterUnits="objectBoundingBox" id="l"><feMorphology radius=".25" operator="dilate" in="SourceAlpha" result="shadowSpreadOuter1"/><feOffset in="shadowSpreadOuter1" result="shadowOffsetOuter1"/><feColorMatrix values="0 0 0 0 0 0 0 0 0 0 0 0 0 0 0 0 0 0 0.06 0" in="shadowOffsetOuter1"/></filter><path d="M9.49 6.4A1.5 1.5 0 0 0 10.5 9a1.5 1.5 0 0 0 1.03-2.6" id="a"/><mask id="n" x="0" y="0" width="3" height="2.61" fill="#fff"><use xlink:href="#a"/></mask></defs><g transform="translate(1 1)" fill="none" fill-rule="evenodd"><mask id="e" fill="#fff"><use xlink:href="#b"/></mask><use fill="#000" filter="url(#c)" xlink:href="#b"/><use fill="url(#d)" xlink:href="#b"/><g mask="url(#e)"><use fill="#000" filter="url(#f)" xlink:href="#g"/><use fill="url(#h)" xlink:href="#g"/></g><g mask="url(#e)"><use fill="#000" filter="url(#i)" xlink:href="#j"/><use fill="url(#k)" xlink:href="#j"/></g><g mask="url(#e)"><use fill="#000" filter="url(#l)" xlink:href="#m"/><use fill="url(#d)" xlink:href="#m"/></g><path d="M1 4.25c0-.14.1-.25.25-.25h.5c.14 0 .25.1.25.25v.5c0 .14-.1.25-.25.25h-.5A.25.25 0 0 1 1 4.75v-.5zm2 0c0-.14.1-.25.25-.25h.5c.14 0 .25.1.25.25v.5c0 .14-.1.25-.25.25h-.5A.25.25 0 0 1 3 4.75v-.5zm2 0c0-.14.1-.25.25-.25h.5c.14 0 .25.1.25.25v.5c0 .14-.1.25-.25.25h-.5A.25.25 0 0 1 5 4.75v-.5zm2 0c0-.14.1-.25.25-.25h.5c.14 0 .25.1.25.25v.5c0 .14-.1.25-.25.25h-.5A.25.25 0 0 1 7 4.75v-.5zm2 0c0-.14.1-.25.25-.25h.5c.14 0 .25.1.25.25v.5c0 .14-.1.25-.25.25h-.5A.25.25 0 0 1 9 4.75v-.5zm2 0c0-.14.1-.25.25-.25h.5c.14 0 .25.1.25.25v.5c0 .14-.1.25-.25.25h-.5a.25.25 0 0 1-.25-.25v-.5zm2 0c0-.14.1-.25.25-.25h.5c.14 0 .25.1.25.25v.5c0 .14-.1.25-.25.25h-.5a.25.25 0 0 1-.25-.25v-.5zm2 0c0-.14.1-.25.25-.25h.5c.14 0 .25.1.25.25v.5c0 .14-.1.25-.25.25h-.5a.25.25 0 0 1-.25-.25v-.5zm2 0c0-.14.1-.25.25-.25h.5c.14 0 .25.1.25.25v.5c0 .14-.1.25-.25.25h-.5a.25.25 0 0 1-.25-.25v-.5zm2 0c0-.14.1-.25.25-.25h.5c.14 0 .25.1.25.25v.5c0 .14-.1.25-.25.25h-.5a.25.25 0 0 1-.25-.25v-.5zm-18 6c0-.14.1-.25.25-.25h.5c.14 0 .25.1.25.25v.5c0 .14-.1.25-.25.25h-.5a.25.25 0 0 1-.25-.25v-.5zm2 0c0-.14.1-.25.25-.25h.5c.14 0 .25.1.25.25v.5c0 .14-.1.25-.25.25h-.5a.25.25 0 0 1-.25-.25v-.5zm2 0c0-.14.1-.25.25-.25h.5c.14 0 .25.1.25.25v.5c0 .14-.1.25-.25.25h-.5a.25.25 0 0 1-.25-.25v-.5zm2 0c0-.14.1-.25.25-.25h.5c.14 0 .25.1.25.25v.5c0 .14-.1.25-.25.25h-.5a.25.25 0 0 1-.25-.25v-.5zm2 0c0-.14.1-.25.25-.25h.5c.14 0 .25.1.25.25v.5c0 .14-.1.25-.25.25h-.5a.25.25 0 0 1-.25-.25v-.5zm2 0c0-.14.1-.25.25-.25h.5c.14 0 .25.1.25.25v.5c0 .14-.1.25-.25.25h-.5a.25.25 0 0 1-.25-.25v-.5zm2 0c0-.14.1-.25.25-.25h.5c.14 0 .25.1.25.25v.5c0 .14-.1.25-.25.25h-.5a.25.25 0 0 1-.25-.25v-.5zm2 0c0-.14.1-.25.25-.25h.5c.14 0 .25.1.25.25v.5c0 .14-.1.25-.25.25h-.5a.25.25 0 0 1-.25-.25v-.5zm2 0c0-.14.1-.25.25-.25h.5c.14 0 .25.1.25.25v.5c0 .14-.1.25-.25.25h-.5a.25.25 0 0 1-.25-.25v-.5zm2 0c0-.14.1-.25.25-.25h.5c.14 0 .25.1.25.25v.5c0 .14-.1.25-.25.25h-.5a.25.25 0 0 1-.25-.25v-.5z" fill-opacity=".5" fill="#FFF" mask="url(#e)"/><g mask="url(#e)" stroke="#D80915"><use mask="url(#n)" xlink:href="#a"/></g><rect fill="#D80915" mask="url(#e)" x="10" y="7" width="1" height="2" rx=".5"/><rect mask="url(#e)" width="21" height="15" rx="1.5"/></g></svg>