<svg width="23" height="17" viewBox="0 0 23 17" xmlns="http://www.w3.org/2000/svg" xmlns:xlink="http://www.w3.org/1999/xlink"><title>KR</title><defs><linearGradient x1="50%" y1="0%" x2="50%" y2="100%" id="c"><stop stop-color="#FFF" offset="0%"/><stop stop-color="#F0F0F0" offset="100%"/></linearGradient><rect id="a" width="21" height="15" rx="1.5"/><filter x="-50%" y="-50%" width="200%" height="200%" filterUnits="objectBoundingBox" id="b"><feOffset dy=".5" in="SourceAlpha" result="shadowOffsetOuter1"/><feGaussianBlur stdDeviation=".5" in="shadowOffsetOuter1" result="shadowBlurOuter1"/><feColorMatrix values="0 0 0 0 0 0 0 0 0 0 0 0 0 0 0 0 0 0 0.16 0" in="shadowBlurOuter1"/></filter><linearGradient x1="50%" y1="0%" x2="50%" y2="100%" id="f"><stop stop-color="#E01B41" offset="0%"/><stop stop-color="#C51335" offset="100%"/></linearGradient><circle id="e" cx="3.5" cy="3.5" r="3.5"/><linearGradient x1="50%" y1="0%" x2="50%" y2="100%" id="g"><stop stop-color="#0D4B9C" offset="0%"/><stop stop-color="#053677" offset="100%"/></linearGradient><linearGradient x1="50%" y1="0%" x2="50%" y2="100%" id="i"><stop stop-color="#262626" offset="0%"/><stop stop-color="#0C0C0C" offset="100%"/></linearGradient></defs><g transform="translate(1 1)" fill="none" fill-rule="evenodd"><mask id="d" fill="#fff"><use xlink:href="#a"/></mask><use fill="#000" filter="url(#b)" xlink:href="#a"/><use fill="url(#c)" xlink:href="#a"/><g mask="url(#d)"><g transform="translate(7 4)"><mask id="h" fill="#fff"><use xlink:href="#e"/></mask><use fill="url(#f)" xlink:href="#e"/><path d="M0 4c1 .94 2.5 1.5 3.5 0s3-1.5 3.5 0 0 3 0 3H0s-1-3.94 0-3z" fill="url(#g)" mask="url(#h)"/></g></g><path d="M14.2 3.92a.25.25 0 0 1 .1-.35l.43-.24a.25.25 0 0 1 .34.1l1.25 2.15c.07.12.03.27-.1.35l-.42.24a.25.25 0 0 1-.35-.1l-1.24-2.15zm1.3-.75a.25.25 0 0 1 .1-.35l.43-.24a.25.25 0 0 1 .34.1l1.25 2.15c.07.12.03.27-.1.35l-.42.24a.25.25 0 0 1-.35-.1l-1.24-2.15zm-12.12 7a.25.25 0 0 1 .1-.35l.42-.24a.25.25 0 0 1 .35.1l1.24 2.15c.07.12.04.27-.09.35l-.43.24a.25.25 0 0 1-.34-.1l-1.25-2.15zm1.3-.75a.25.25 0 0 1 .1-.35l.42-.24a.25.25 0 0 1 .35.1l1.24 2.15c.07.12.04.27-.09.35l-.43.24a.25.25 0 0 1-.34-.1L4.68 9.43zm10.77-.5a.25.25 0 0 1 .35-.1l.43.25c.12.07.16.23.09.35l-1.25 2.16a.25.25 0 0 1-.34.1l-.43-.25a.25.25 0 0 1-.1-.35l1.25-2.16zm1.3.75a.25.25 0 0 1 .35-.1l.43.25c.12.07.16.23.09.35l-1.25 2.16a.25.25 0 0 1-.34.1l-.43-.25a.25.25 0 0 1-.1-.35l1.25-2.16zm-12.12-7a.25.25 0 0 1 .34-.1l.43.25c.12.07.16.23.1.35L4.24 5.33a.25.25 0 0 1-.35.1l-.43-.25a.25.25 0 0 1-.09-.35l1.25-2.16zm1.3.75a.25.25 0 0 1 .34-.1l.43.25c.12.07.16.23.1.35L5.54 6.08a.25.25 0 0 1-.35.1l-.43-.25a.25.25 0 0 1-.09-.35l1.25-2.16z" fill="url(#i)" opacity=".75" mask="url(#d)"/></g></svg>