<svg width="23" height="17" viewBox="0 0 23 17" xmlns="http://www.w3.org/2000/svg" xmlns:xlink="http://www.w3.org/1999/xlink"><title>LK</title><defs><linearGradient x1="50%" y1="0%" x2="50%" y2="100%" id="c"><stop stop-color="#FFF" offset="0%"/><stop stop-color="#F0F0F0" offset="100%"/></linearGradient><rect id="a" width="21" height="15" rx="1.5"/><filter x="-50%" y="-50%" width="200%" height="200%" filterUnits="objectBoundingBox" id="b"><feOffset dy=".5" in="SourceAlpha" result="shadowOffsetOuter1"/><feGaussianBlur stdDeviation=".5" in="shadowOffsetOuter1" result="shadowBlurOuter1"/><feColorMatrix values="0 0 0 0 0 0 0 0 0 0 0 0 0 0 0 0 0 0 0.16 0" in="shadowBlurOuter1"/></filter><linearGradient x1="50%" y1="0%" x2="50%" y2="100%" id="d"><stop stop-color="#FFBF19" offset="0%"/><stop stop-color="#FFB800" offset="100%"/></linearGradient><linearGradient x1="50%" y1="0%" x2="50%" y2="100%" id="f"><stop stop-color="#A52530" offset="0%"/><stop stop-color="#8E1F29" offset="100%"/></linearGradient><linearGradient x1="50%" y1="0%" x2="50%" y2="100%" id="g"><stop stop-color="#03664F" offset="0%"/><stop stop-color="#005642" offset="100%"/></linearGradient><linearGradient x1="50%" y1="0%" x2="50%" y2="100%" id="h"><stop stop-color="#FF6815" offset="0%"/><stop stop-color="#FF5B01" offset="100%"/></linearGradient><linearGradient x1="50%" y1="0%" x2="50%" y2="100%" id="k"><stop stop-color="#FFBF18" offset="0%"/><stop stop-color="#FFB800" offset="100%"/></linearGradient><path d="M9.5 3a.5.5 0 0 0 0-1H9v.5c0 .28.22.5.5.5zm9 0a.5.5 0 1 1 0-1h.5v.5a.5.5 0 0 1-.5.5zm0 9a.5.5 0 1 0 0 1h.5v-.5a.5.5 0 0 0-.5-.5zm-9 0a.5.5 0 1 1 0 1H9v-.5c0-.28.22-.5.5-.5z" id="j"/><filter x="-50%" y="-50%" width="200%" height="200%" filterUnits="objectBoundingBox" id="i"><feOffset dy=".5" in="SourceAlpha" result="shadowOffsetOuter1"/><feColorMatrix values="0 0 0 0 0 0 0 0 0 0 0 0 0 0 0 0 0 0 0.06 0" in="shadowOffsetOuter1"/></filter><path d="M12 9.5a.5.5 0 0 0-.5-.5h.5c-.28 0-.7-.08-.97-.18 0 0-1.03-.32-1.03-.82 0-.5.2-.61.2-.61a.97.97 0 0 0 .12-.86S9.9 5.6 10 5c.1-.6.57-.75.57-.75.24-.14.43-.03.43.25v2c0 .28.2.6.45.73l.1.04c.25.13.6.07.8-.12l-.2.2c.2-.2.16-.45-.1-.58l-.55-.27V6h.5c.28 0 .3-.1.05-.23l-.55-.27V5h.5c.28 0 .66-.16.85-.35l-.2.2c.2-.2.58-.35.85-.35.28 0 .6.2.73.45l.04.1c.13.25.16.66.07.92l-.18.56c-.09.26.07.47.35.47h1.48c.28 0 .67-.16.86-.35l-.2.2c.2-.2.16-.45-.1-.58l-.1-.04A2.57 2.57 0 0 0 15.5 6a.5.5 0 0 1-.5-.5c0-.28.16-.66.35-.85l.15-.15V5c0 .28.23.5.5.5h-.5 1c.28 0 .6.2.73.45l.04.1c.13.25.25.67.27.94 0 0 .07.48-.04 1.01-.1.53-.23.59-.23.59a1.9 1.9 0 0 0-.27.91v1a.5.5 0 0 1-.5.5c-.28 0-.4-.2-.27-.45l.04-.1c.13-.25.13-.64 0-.9l-.04-.1c-.13-.25-.23-.22-.23.05 0 .28-.1.7-.23.95l-.04.1A.9.9 0 0 1 15 11c-.28 0-.4-.2-.27-.45l.04-.1c.13-.25.23-.68.23-.95a.5.5 0 0 0-.5-.5h-1a.5.5 0 0 0-.5.5c0 .28-.1.7-.23.95l-.04.1A.9.9 0 0 1 12 11c-.28 0-.4-.2-.27-.45l.04-.1c.13-.25.23-.68.23-.95z" id="m"/><filter x="-50%" y="-50%" width="200%" height="200%" filterUnits="objectBoundingBox" id="l"><feOffset dy=".5" in="SourceAlpha" result="shadowOffsetOuter1"/><feColorMatrix values="0 0 0 0 0 0 0 0 0 0 0 0 0 0 0 0 0 0 0.06 0" in="shadowOffsetOuter1"/></filter></defs><g transform="translate(1 1)" fill="none" fill-rule="evenodd"><mask id="e" fill="#fff"><use xlink:href="#a"/></mask><use fill="#000" filter="url(#b)" xlink:href="#a"/><use fill="url(#c)" xlink:href="#a"/><path fill="url(#d)" mask="url(#e)" d="M0 0h21v15H0z"/><rect fill="url(#f)" mask="url(#e)" x="8" y="1" width="12" height="13" rx="1"/><rect fill="url(#g)" mask="url(#e)" x="1" y="1" width="3" height="13" rx="1"/><rect fill="url(#h)" mask="url(#e)" x="4" y="1" width="3" height="13" rx=".5"/><g mask="url(#e)"><use fill="#000" filter="url(#i)" xlink:href="#j"/><use fill="url(#k)" xlink:href="#j"/></g><rect mask="url(#e)" width="21" height="15" rx="1.5"/><g mask="url(#e)"><use fill="#000" filter="url(#l)" xlink:href="#m"/><use fill="url(#k)" xlink:href="#m"/></g></g></svg>