<svg width="23" height="17" viewBox="0 0 23 17" xmlns="http://www.w3.org/2000/svg" xmlns:xlink="http://www.w3.org/1999/xlink"><title>MD</title><defs><linearGradient x1="50%" y1="0%" x2="50%" y2="100%" id="c"><stop stop-color="#FFF" offset="0%"/><stop stop-color="#F0F0F0" offset="100%"/></linearGradient><rect id="a" width="21" height="15" rx="1.5"/><filter x="-50%" y="-50%" width="200%" height="200%" filterUnits="objectBoundingBox" id="b"><feOffset dy=".5" in="SourceAlpha" result="shadowOffsetOuter1"/><feGaussianBlur stdDeviation=".5" in="shadowOffsetOuter1" result="shadowBlurOuter1"/><feColorMatrix values="0 0 0 0 0 0 0 0 0 0 0 0 0 0 0 0 0 0 0.16 0" in="shadowBlurOuter1"/></filter><linearGradient x1="50%" y1="0%" x2="50%" y2="100%" id="d"><stop stop-color="#EC1B43" offset="0%"/><stop stop-color="#CA1134" offset="100%"/></linearGradient><linearGradient x1="50%" y1="0%" x2="50%" y2="100%" id="f"><stop stop-color="#115BCC" offset="0%"/><stop stop-color="#094AAC" offset="100%"/></linearGradient><linearGradient x1="50%" y1="0%" x2="50%" y2="100%" id="i"><stop stop-color="#FFD952" offset="0%"/><stop stop-color="#FFD130" offset="100%"/></linearGradient><path id="h" d="M7 0h7v15H7z"/><filter x="-50%" y="-50%" width="200%" height="200%" filterUnits="objectBoundingBox" id="g"><feMorphology radius=".25" operator="dilate" in="SourceAlpha" result="shadowSpreadOuter1"/><feOffset in="shadowSpreadOuter1" result="shadowOffsetOuter1"/><feColorMatrix values="0 0 0 0 0 0 0 0 0 0 0 0 0 0 0 0 0 0 0.06 0" in="shadowOffsetOuter1"/></filter></defs><g fill="none" fill-rule="evenodd"><g transform="translate(1 1)"><mask id="e" fill="#fff"><use xlink:href="#a"/></mask><use fill="#000" filter="url(#b)" xlink:href="#a"/><use fill="url(#c)" xlink:href="#a"/><path fill="url(#d)" mask="url(#e)" d="M10 0h11v15H10z"/><path fill="url(#f)" mask="url(#e)" d="M0 0h7v15H0z"/><g mask="url(#e)"><use fill="#000" filter="url(#g)" xlink:href="#h"/><use fill="url(#i)" xlink:href="#h"/></g><rect mask="url(#e)" width="21" height="15" rx="1.5"/></g><path d="M10 7h1l.5-1.5L12 7h1v3l-1.5 1-1.5-1V7zm1 1h1v1.5h-1V8z" fill="#AF7F59"/></g></svg>