<svg width="23" height="17" viewBox="0 0 23 17" xmlns="http://www.w3.org/2000/svg" xmlns:xlink="http://www.w3.org/1999/xlink"><title>ME</title><defs><linearGradient x1="50%" y1="0%" x2="50%" y2="100%" id="c"><stop stop-color="#FFF" offset="0%"/><stop stop-color="#F0F0F0" offset="100%"/></linearGradient><rect id="a" width="21" height="15" rx="1.5"/><filter x="-50%" y="-50%" width="200%" height="200%" filterUnits="objectBoundingBox" id="b"><feOffset dy=".5" in="SourceAlpha" result="shadowOffsetOuter1"/><feGaussianBlur stdDeviation=".5" in="shadowOffsetOuter1" result="shadowBlurOuter1"/><feColorMatrix values="0 0 0 0 0 0 0 0 0 0 0 0 0 0 0 0 0 0 0.16 0" in="shadowBlurOuter1"/></filter><linearGradient x1="50%" y1="0%" x2="50%" y2="100%" id="g"><stop stop-color="#E6BE53" offset="0%"/><stop stop-color="#D3AD46" offset="100%"/></linearGradient><path id="f" d="M0 0h21v15H0z"/><filter x="-50%" y="-50%" width="200%" height="200%" filterUnits="objectBoundingBox" id="e"><feOffset dy=".5" in="SourceAlpha" result="shadowOffsetOuter1"/><feGaussianBlur stdDeviation=".5" in="shadowOffsetOuter1" result="shadowBlurOuter1"/><feColorMatrix values="0 0 0 0 0 0 0 0 0 0 0 0 0 0 0 0 0 0 0.16 0" in="shadowBlurOuter1"/></filter><linearGradient x1="50%" y1="0%" x2="50%" y2="100%" id="h"><stop stop-color="#E01826" offset="0%"/><stop stop-color="#C30A17" offset="100%"/></linearGradient><path d="M10.15 5.15c.2.2.5.2.7 0l-.2.2.7-.7.3-.3c.2-.2.54-.25.8-.12l.1.04c.25.13.3.39.1.58l.2-.2-.7.7-.3.3c-.2.2-.25.54-.12.8l.04.1c.13.25.23.68.23.95V7c0 .28.2.4.45.27l.1-.04c.25-.13.3-.39.1-.58l.2.2a.5.5 0 0 1 0-.7l-.2.2c.2-.2.45-.54.58-.8l.04-.1c.13-.25.28-.66.35-.93l.26-1.04c.07-.26.26-.3.42-.08l.9 1.2c.16.22.3.61.3.9v1c0 .27-.1.7-.23.95l-.04.1c-.13.25-.39.6-.58.8l-.3.3c-.2.2-.54.45-.8.58l-.1.04c-.25.13-.68.23-.95.23-.28 0-.3.1-.05.23l.1.04c.25.13.6.39.8.58l-.2-.2c.2.2.5.2.7 0l-.2.2c.2-.2.5-.2.7 0l-.2-.2c.2.2.25.54.12.8l-.04.1a.9.9 0 0 1-.73.45c-.28 0-.7-.1-.95-.23l-.1-.04a1.74 1.74 0 0 1-.68-.68l-.04-.1c-.13-.25-.39-.3-.58-.1l.2-.2c-.2.2-.23.53-.08.76l.46.68a.5.5 0 0 1-.14.68l-.68.46a.8.8 0 0 1-.82 0l-.68-.46a.5.5 0 0 1-.14-.68l.46-.68a.63.63 0 0 0-.08-.76l.2.2c-.2-.2-.45-.16-.58.1l-.04.1c-.13.25-.42.55-.68.68l-.1.04c-.25.13-.68.23-.95.23a.9.9 0 0 1-.73-.45l-.04-.1a.74.74 0 0 1 .12-.8l-.2.2c.2-.2.5-.2.7 0l-.2-.2c.2.2.5.2.7 0l-.2.2c.2-.2.54-.45.8-.58l.1-.04c.25-.13.22-.23-.05-.23-.28 0-.7-.1-.95-.23l-.1-.04a4.2 4.2 0 0 1-.8-.58l-.3-.3c-.2-.2-.45-.54-.58-.8l-.04-.1a2.49 2.49 0 0 1-.23-.95v-1c0-.27.14-.68.3-.9l.9-1.2c.16-.22.35-.19.42.08l.26 1.04c.07.26.22.67.35.93l.04.1c.13.25.39.6.58.8l-.2-.2c.2.2.2.5 0 .7l.2-.2c-.2.2-.16.45.1.58l.1.04C8.8 7.4 9 7.27 9 7v.5c0-.28.1-.7.23-.95l.04-.1a.74.74 0 0 0-.12-.8l-.3-.3-.7-.7.2.2c-.2-.2-.16-.45.1-.58l.1-.04c.25-.13.6-.07.8.12l.3.3.7.7-.2-.2zm-.8-1.8c-.2-.2-.14-.42.12-.5l.56-.2c.26-.08.68-.08.94 0l.56.2c.26.08.31.3.12.5l-.3.3c-.2.2-.58.35-.85.35-.28 0-.66-.16-.85-.35l-.3-.3z" id="j"/><filter x="-50%" y="-50%" width="200%" height="200%" filterUnits="objectBoundingBox" id="i"><feOffset dy=".5" in="SourceAlpha" result="shadowOffsetOuter1"/><feColorMatrix values="0 0 0 0 0 0 0 0 0 0 0 0 0 0 0 0 0 0 0.06 0" in="shadowOffsetOuter1"/></filter></defs><g transform="translate(1 1)" fill="none" fill-rule="evenodd"><mask id="d" fill="#fff"><use xlink:href="#a"/></mask><use fill="#000" filter="url(#b)" xlink:href="#a"/><use fill="url(#c)" xlink:href="#a"/><g mask="url(#d)"><use fill="#000" filter="url(#e)" xlink:href="#f"/><use fill="url(#g)" xlink:href="#f"/></g><rect fill="url(#h)" mask="url(#d)" x="1" y="1" width="19" height="13" rx=".75"/><g mask="url(#d)"><use fill="#000" filter="url(#i)" xlink:href="#j"/><use fill="url(#g)" xlink:href="#j"/></g><path d="M9.5 9c0 .28.08.3.18.03 0 0 .32-1.03.82-1.03.5 0 .82 1.04.82 1.04.1.25.18.24.18-.05V8.5c0-.83-.45-1.5-1-1.5s-1 .67-1 1.5V9z" fill="#215F90" mask="url(#d)"/><rect mask="url(#d)" width="21" height="15" rx="1.5"/></g></svg>