<svg width="23" height="17" viewBox="0 0 23 17" xmlns="http://www.w3.org/2000/svg" xmlns:xlink="http://www.w3.org/1999/xlink"><title>MK</title><defs><linearGradient x1="50%" y1="0%" x2="50%" y2="100%" id="c"><stop stop-color="#FFF" offset="0%"/><stop stop-color="#F0F0F0" offset="100%"/></linearGradient><rect id="a" width="21" height="15" rx="1.5"/><filter x="-50%" y="-50%" width="200%" height="200%" filterUnits="objectBoundingBox" id="b"><feOffset dy=".5" in="SourceAlpha" result="shadowOffsetOuter1"/><feGaussianBlur stdDeviation=".5" in="shadowOffsetOuter1" result="shadowBlurOuter1"/><feColorMatrix values="0 0 0 0 0 0 0 0 0 0 0 0 0 0 0 0 0 0 0.16 0" in="shadowBlurOuter1"/></filter><linearGradient x1="50%" y1="0%" x2="50%" y2="100%" id="d"><stop stop-color="#E81A26" offset="0%"/><stop stop-color="#D00914" offset="100%"/></linearGradient><linearGradient x1="50%" y1="0%" x2="50%" y2="100%" id="h"><stop stop-color="#FFEA4E" offset="0%"/><stop stop-color="#FFE633" offset="100%"/></linearGradient><circle id="g" cx="10.5" cy="7.5" r="2.5"/><filter x="-50%" y="-50%" width="200%" height="200%" filterUnits="objectBoundingBox" id="f"><feOffset dy=".5" in="SourceAlpha" result="shadowOffsetOuter1"/><feColorMatrix values="0 0 0 0 0 0 0 0 0 0 0 0 0 0 0 0 0 0 0.06 0" in="shadowOffsetOuter1"/></filter><path d="M13.34 9.54l8.2 5.88-2.01 2.23-6.7-7.54c.19-.17.36-.36.51-.57zM9.81 4.07L9 0h3l-.81 4.07a3.52 3.52 0 0 0-1.38 0zm-1.64.82l-6.7-7.54-2 2.23 8.19 5.88c.15-.21.32-.4.51-.57zm3.02 6.04L12 15H9l.81-4.07a3.52 3.52 0 0 0 1.38 0zM7.03 7L0 6v3l7.03-1a3.53 3.53 0 0 1 0-1zm1.14 3.11l-6.7 7.54-2-2.23 8.19-5.88c.15.21.32.4.51.57zm5.8-3.1L21 6v3l-7.03-1a3.53 3.53 0 0 0 0-1zm-1.14-2.12l6.7-7.54 2 2.23-8.19 5.88c-.15-.21-.32-.4-.51-.57z" id="j"/><filter x="-50%" y="-50%" width="200%" height="200%" filterUnits="objectBoundingBox" id="i"><feOffset dy=".5" in="SourceAlpha" result="shadowOffsetOuter1"/><feColorMatrix values="0 0 0 0 0 0 0 0 0 0 0 0 0 0 0 0 0 0 0.06 0" in="shadowOffsetOuter1"/></filter></defs><g transform="translate(1 1)" fill="none" fill-rule="evenodd"><mask id="e" fill="#fff"><use xlink:href="#a"/></mask><use fill="#000" filter="url(#b)" xlink:href="#a"/><use fill="url(#c)" xlink:href="#a"/><path fill="url(#d)" mask="url(#e)" d="M0 0h21v15H0z"/><g mask="url(#e)"><use fill="#000" filter="url(#f)" xlink:href="#g"/><use fill="url(#h)" xlink:href="#g"/></g><g mask="url(#e)"><use fill="#000" filter="url(#i)" xlink:href="#j"/><use fill="url(#h)" xlink:href="#j"/></g><rect mask="url(#e)" width="21" height="15" rx="1.5"/></g></svg>