<svg width="23" height="17" viewBox="0 0 23 17" xmlns="http://www.w3.org/2000/svg" xmlns:xlink="http://www.w3.org/1999/xlink"><title>MO</title><defs><linearGradient x1="50%" y1="0%" x2="50%" y2="100%" id="c"><stop stop-color="#FFF" offset="0%"/><stop stop-color="#F0F0F0" offset="100%"/></linearGradient><rect id="a" width="21" height="15" rx="1.5"/><filter x="-50%" y="-50%" width="200%" height="200%" filterUnits="objectBoundingBox" id="b"><feOffset dy=".5" in="SourceAlpha" result="shadowOffsetOuter1"/><feGaussianBlur stdDeviation=".5" in="shadowOffsetOuter1" result="shadowBlurOuter1"/><feColorMatrix values="0 0 0 0 0 0 0 0 0 0 0 0 0 0 0 0 0 0 0.16 0" in="shadowBlurOuter1"/></filter><linearGradient x1="50%" y1="0%" x2="50%" y2="100%" id="g"><stop stop-color="#079D7B" offset="0%"/><stop stop-color="#01795E" offset="100%"/></linearGradient><path id="f" d="M0 0h21v15H0z"/><filter x="-50%" y="-50%" width="200%" height="200%" filterUnits="objectBoundingBox" id="e"><feMorphology radius=".25" operator="dilate" in="SourceAlpha" result="shadowSpreadOuter1"/><feOffset in="shadowSpreadOuter1" result="shadowOffsetOuter1"/><feColorMatrix values="0 0 0 0 0 0 0 0 0 0 0 0 0 0 0 0 0 0 0.06 0" in="shadowOffsetOuter1"/></filter><path d="M2.45 6.9l.42.1H.5c.12.36.28.7.47 1h7.06c.2-.3.35-.64.47-1H6.1l.43-.1c-.45.02-1.2.1-2.03.1-.85 0-1.6-.08-2.05-.1zm-.42-.12C.91 6.4.15 5.79.27 5.34c.13-.5 1.32-.62 2.66-.26l.2.06a4.4 4.4 0 0 1-.04-.64c0-1.38.63-2.5 1.41-2.5.78 0 1.41 1.12 1.41 2.5 0 .22-.01.43-.04.63l.23-.06c1.34-.36 2.53-.24 2.66.26.12.45-.66 1.07-1.8 1.44C6.76 6.18 5.74 6 4.5 6s-2.27.18-2.47.78zM7.17 9a4.08 4.08 0 0 1-5.34 0h5.34z" id="i"/><filter x="-50%" y="-50%" width="200%" height="200%" filterUnits="objectBoundingBox" id="h"><feOffset dy=".5" in="SourceAlpha" result="shadowOffsetOuter1"/><feColorMatrix values="0 0 0 0 0 0 0 0 0 0 0 0 0 0 0 0 0 0 0.06 0" in="shadowOffsetOuter1"/></filter><path d="M4.5 1a.5.5 0 1 0 0-1 .5.5 0 0 0 0 1zm-4 2.5a.5.5 0 1 0 0-1 .5.5 0 0 0 0 1zm8 0a.5.5 0 1 0 0-1 .5.5 0 0 0 0 1zM7 2a.5.5 0 1 0 0-1 .5.5 0 0 0 0 1zM2 2a.5.5 0 1 0 0-1 .5.5 0 0 0 0 1z" id="k"/><filter x="-50%" y="-50%" width="200%" height="200%" filterUnits="objectBoundingBox" id="j"><feOffset dy=".5" in="SourceAlpha" result="shadowOffsetOuter1"/><feColorMatrix values="0 0 0 0 0 0 0 0 0 0 0 0 0 0 0 0 0 0 0.06 0" in="shadowOffsetOuter1"/></filter></defs><g transform="translate(1 1)" fill="none" fill-rule="evenodd"><mask id="d" fill="#fff"><use xlink:href="#a"/></mask><use fill="#000" filter="url(#b)" xlink:href="#a"/><use fill="url(#c)" xlink:href="#a"/><g mask="url(#d)"><use fill="#000" filter="url(#e)" xlink:href="#f"/><use fill="url(#g)" xlink:href="#f"/></g><g mask="url(#d)"><g transform="translate(6 2)"><use fill="#000" filter="url(#h)" xlink:href="#i"/><use fill="url(#c)" xlink:href="#i"/></g><g transform="translate(6 2)"><use fill="#000" filter="url(#j)" xlink:href="#k"/><use fill="#FCD117" xlink:href="#k"/></g></g></g></svg>