<svg width="23" height="17" viewBox="0 0 23 17" xmlns="http://www.w3.org/2000/svg" xmlns:xlink="http://www.w3.org/1999/xlink"><title>NP</title><defs><linearGradient x1="50%" y1="0%" x2="50%" y2="100%" id="d"><stop stop-color="#FFF" offset="0%"/><stop stop-color="#F0F0F0" offset="100%"/></linearGradient><path d="M0 1.5C0 .66.68 0 1.5 0c.27 0 .69.13.91.28l10.77 7.17c.45.3.37.55-.18.55H6l7.25 6.34c.41.37.3.66-.26.66H1.5A1.5 1.5 0 0 1 0 13.5v-12z" id="b"/><filter x="-50%" y="-50%" width="200%" height="200%" filterUnits="objectBoundingBox" id="c"><feOffset dy=".5" in="SourceAlpha" result="shadowOffsetOuter1"/><feGaussianBlur stdDeviation=".5" in="shadowOffsetOuter1" result="shadowBlurOuter1"/><feColorMatrix values="0 0 0 0 0 0 0 0 0 0 0 0 0 0 0 0 0 0 0.16 0" in="shadowBlurOuter1"/></filter><linearGradient x1="50%" y1="0%" x2="50%" y2="100%" id="g"><stop stop-color="#EF1B44" offset="0%"/><stop stop-color="#DD153C" offset="100%"/></linearGradient><linearGradient x1="50%" y1="0%" x2="50%" y2="100%" id="f"><stop stop-color="#0443A8" offset="0%"/><stop stop-color="#003893" offset="100%"/></linearGradient><path d="M0 0h1.5c.27 0 .69.13.91.28l10.77 7.17c.45.3.37.55-.18.55H6l7.25 6.34c.41.37.3.66-.26.66H0V0z" id="a"/><mask id="h" x="0" y="0" width="13.5" height="15" fill="#fff"><use xlink:href="#a"/></mask><path d="M0 1.5C0 .66.68 0 1.5 0c.27 0 .69.13.91.28l10.77 7.17c.45.3.37.55-.18.55H6l7.25 6.34c.41.37.3.66-.26.66H1.5A1.5 1.5 0 0 1 0 13.5v-12z" id="i"/><path d="M2.86 5.85a3.52 3.52 0 0 1-.79-.32 2 2 0 0 0 3.86 0c-.24.13-.5.24-.8.32l-.38-.35.64-.57-.86.04.04-.86-.57.64-.57-.64.04.86-.86-.04.64.57-.39.35zM4 12l-.77.85.06-1.14-1.14.06L3 11l-.85-.77 1.14.06-.06-1.14L4 10l.77-.85-.06 1.14 1.14-.06L5 11l.85.77-1.14-.06.06 1.14L4 12z" id="l"/><filter x="-50%" y="-50%" width="200%" height="200%" filterUnits="objectBoundingBox" id="k"><feOffset dy=".5" in="SourceAlpha" result="shadowOffsetOuter1"/><feColorMatrix values="0 0 0 0 0 0 0 0 0 0 0 0 0 0 0 0 0 0 0.06 0" in="shadowOffsetOuter1"/></filter></defs><g transform="translate(1 1)" fill="none" fill-rule="evenodd"><mask id="e" fill="#fff"><use xlink:href="#b"/></mask><use fill="#000" filter="url(#c)" xlink:href="#b"/><use fill="url(#d)" xlink:href="#b"/><g mask="url(#e)" stroke="url(#f)" stroke-width="2" fill="url(#g)" stroke-linejoin="round"><use mask="url(#h)" xlink:href="#a"/></g><mask id="j" fill="#fff"><use xlink:href="#i"/></mask><g mask="url(#j)"><use fill="#000" filter="url(#k)" xlink:href="#l"/><use fill="url(#d)" xlink:href="#l"/></g></g></svg>