<svg width="23" height="17" viewBox="0 0 23 17" xmlns="http://www.w3.org/2000/svg" xmlns:xlink="http://www.w3.org/1999/xlink"><title>PG</title><defs><linearGradient x1="50%" y1="0%" x2="50%" y2="100%" id="c"><stop stop-color="#FFF" offset="0%"/><stop stop-color="#F0F0F0" offset="100%"/></linearGradient><rect id="a" width="21" height="15" rx="1.5"/><filter x="-50%" y="-50%" width="200%" height="200%" filterUnits="objectBoundingBox" id="b"><feOffset dy=".5" in="SourceAlpha" result="shadowOffsetOuter1"/><feGaussianBlur stdDeviation=".5" in="shadowOffsetOuter1" result="shadowBlurOuter1"/><feColorMatrix values="0 0 0 0 0 0 0 0 0 0 0 0 0 0 0 0 0 0 0.16 0" in="shadowBlurOuter1"/></filter><linearGradient x1="50%" y1="0%" x2="50%" y2="100%" id="d"><stop stop-color="#262626" offset="0%"/><stop stop-color="#0C0C0C" offset="100%"/></linearGradient><linearGradient x1="50%" y1="0%" x2="50%" y2="100%" id="f"><stop stop-color="#E8283F" offset="0%"/><stop stop-color="#CC162C" offset="100%"/></linearGradient><path id="h" d="M5 12.5l-.7.2.2-.7-.2-.7.7.2.7-.2-.2.7.2.7z"/><filter x="-50%" y="-50%" width="200%" height="200%" filterUnits="objectBoundingBox" id="g"><feOffset dy=".5" in="SourceAlpha" result="shadowOffsetOuter1"/><feColorMatrix values="0 0 0 0 0 0 0 0 0 0 0 0 0 0 0 0 0 0 0.06 0" in="shadowOffsetOuter1"/></filter><path id="j" d="M5 6.5l-.7.2.2-.7-.2-.7.7.2.7-.2-.2.7.2.7z"/><filter x="-50%" y="-50%" width="200%" height="200%" filterUnits="objectBoundingBox" id="i"><feOffset dy=".5" in="SourceAlpha" result="shadowOffsetOuter1"/><feColorMatrix values="0 0 0 0 0 0 0 0 0 0 0 0 0 0 0 0 0 0 0.06 0" in="shadowOffsetOuter1"/></filter><path id="l" d="M2.5 9l-.7.2.2-.7-.2-.7.7.2.7-.2-.2.7.2.7z"/><filter x="-50%" y="-50%" width="200%" height="200%" filterUnits="objectBoundingBox" id="k"><feOffset dy=".5" in="SourceAlpha" result="shadowOffsetOuter1"/><feColorMatrix values="0 0 0 0 0 0 0 0 0 0 0 0 0 0 0 0 0 0 0.06 0" in="shadowOffsetOuter1"/></filter><path id="n" d="M7 8.5l-.7.2.2-.7-.2-.7.7.2.7-.2-.2.7.2.7z"/><filter x="-50%" y="-50%" width="200%" height="200%" filterUnits="objectBoundingBox" id="m"><feOffset dy=".5" in="SourceAlpha" result="shadowOffsetOuter1"/><feColorMatrix values="0 0 0 0 0 0 0 0 0 0 0 0 0 0 0 0 0 0 0.06 0" in="shadowOffsetOuter1"/></filter><linearGradient x1="50%" y1="0%" x2="50%" y2="100%" id="q"><stop stop-color="#FFD84E" offset="0%"/><stop stop-color="#FCD036" offset="100%"/></linearGradient><path d="M14.15 6.95a.49.49 0 0 1-.22-.38v-.92c0-.13-.1-.21-.25-.16l-.57.19a.87.87 0 0 1-.49 0l-.57-.2c-.13-.04-.15-.13-.03-.2l1.34-.8a.32.32 0 0 0 .13-.38l-.19-.57c-.04-.14.02-.21.17-.16l.57.19c.13.04.3-.02.37-.14l.8-1.33c.08-.12.17-.12.22.03l.18.56c.05.14.05.35 0 .5l-.18.56c-.05.14.02.25.16.25h.92c.14 0 .3.1.38.22l.8 1.33c.07.12.01.24-.12.27l-1.27.25a.41.41 0 0 0-.3.3l-.25 1.27c-.03.14-.15.2-.27.12l-1.33-.8z" id="p"/><filter x="-50%" y="-50%" width="200%" height="200%" filterUnits="objectBoundingBox" id="o"><feOffset dy=".5" in="SourceAlpha" result="shadowOffsetOuter1"/><feColorMatrix values="0 0 0 0 0 0 0 0 0 0 0 0 0 0 0 0 0 0 0.06 0" in="shadowOffsetOuter1"/></filter></defs><g transform="translate(1 1)" fill="none" fill-rule="evenodd"><mask id="e" fill="#fff"><use xlink:href="#a"/></mask><use fill="#000" filter="url(#b)" xlink:href="#a"/><use fill="url(#c)" xlink:href="#a"/><path fill="url(#d)" mask="url(#e)" d="M0 0h21v15H0z"/><path fill="url(#f)" mask="url(#e)" d="M0 0h21v15z"/><g mask="url(#e)"><use fill="#000" filter="url(#g)" xlink:href="#h"/><use fill="url(#c)" xlink:href="#h"/></g><g mask="url(#e)"><use fill="#000" filter="url(#i)" xlink:href="#j"/><use fill="url(#c)" xlink:href="#j"/></g><g mask="url(#e)"><use fill="#000" filter="url(#k)" xlink:href="#l"/><use fill="url(#c)" xlink:href="#l"/></g><g mask="url(#e)"><use fill="#000" filter="url(#m)" xlink:href="#n"/><use fill="url(#c)" xlink:href="#n"/></g><g mask="url(#e)"><use fill="#000" filter="url(#o)" xlink:href="#p"/><use fill="url(#q)" xlink:href="#p"/></g><rect mask="url(#e)" width="21" height="15" rx="1.5"/></g></svg>