<svg width="23" height="17" viewBox="0 0 23 17" xmlns="http://www.w3.org/2000/svg" xmlns:xlink="http://www.w3.org/1999/xlink"><title>SA</title><defs><linearGradient x1="50%" y1="0%" x2="50%" y2="100%" id="d"><stop stop-color="#FFF" offset="0%"/><stop stop-color="#F0F0F0" offset="100%"/></linearGradient><filter x="-50%" y="-50%" width="200%" height="200%" filterUnits="objectBoundingBox" id="a"><feMorphology radius=".25" operator="dilate" in="SourceAlpha" result="shadowSpreadOuter1"/><feOffset in="shadowSpreadOuter1" result="shadowOffsetOuter1"/><feColorMatrix values="0 0 0 0 0 0 0 0 0 0 0 0 0 0 0 0 0 0 0.06 0" in="shadowOffsetOuter1" result="shadowMatrixOuter1"/><feMerge><feMergeNode in="shadowMatrixOuter1"/><feMergeNode in="SourceGraphic"/></feMerge></filter><rect id="b" width="21" height="15" rx="1.5"/><filter x="-50%" y="-50%" width="200%" height="200%" filterUnits="objectBoundingBox" id="c"><feOffset dy=".5" in="SourceAlpha" result="shadowOffsetOuter1"/><feGaussianBlur stdDeviation=".5" in="shadowOffsetOuter1" result="shadowBlurOuter1"/><feColorMatrix values="0 0 0 0 0 0 0 0 0 0 0 0 0 0 0 0 0 0 0.16 0" in="shadowBlurOuter1"/></filter><linearGradient x1="50%" y1="0%" x2="50%" y2="100%" id="e"><stop stop-color="#128C4A" offset="0%"/><stop stop-color="#0B6C38" offset="100%"/></linearGradient><path d="M5 9h8V8c0-.27.2-.4.45-.27L14 8v1h1.5c.27 0 .5.21.5.5v.5a1 1 0 0 1-1 1h-1.5a.5.5 0 0 1-.5-.5V10H6.5a1.4 1.4 0 0 1-.85-.35L5 9z" id="h"/><filter x="-50%" y="-50%" width="200%" height="200%" filterUnits="objectBoundingBox" id="g"><feOffset dy=".5" in="SourceAlpha" result="shadowOffsetOuter1"/><feColorMatrix values="0 0 0 0 0 0 0 0 0 0 0 0 0 0 0 0 0 0 0.06 0" in="shadowOffsetOuter1"/></filter><path d="M5 6.25a.7.7 0 0 1 .18-.43l.14-.14c.1-.1.1-.26 0-.36l-.14-.14A.69.69 0 0 1 5 4.75v-.5c0-.14.1-.25.25-.25h.5c.14 0 .25.1.25.25v.5c0 .14.05.16.12.02l.26-.54A.46.46 0 0 1 6.75 4h1c.14 0 .25.12.25.25 0 .14-.1.25-.25.25h-.5a.25.25 0 0 0-.25.25c0 .14.1.25.25.25h.5c.14 0 .25.1.25.25v1.5c0 .14-.1.25-.25.25h-.5A.25.25 0 0 1 7 6.75v-.5c0-.14.12-.25.25-.25.14 0 .25-.12.25-.25 0-.14-.1-.25-.25-.25h-.5a.25.25 0 0 0-.25.25v1c0 .14-.12.25-.25.25A.25.25 0 0 1 6 6.75v-.5A.25.25 0 0 0 5.75 6c-.14 0-.25.1-.25.25v.5c0 .14-.12.25-.25.25A.25.25 0 0 1 5 6.75v-.5z" id="j"/><filter x="-50%" y="-50%" width="200%" height="200%" filterUnits="objectBoundingBox" id="i"><feOffset dy=".5" in="SourceAlpha" result="shadowOffsetOuter1"/><feColorMatrix values="0 0 0 0 0 0 0 0 0 0 0 0 0 0 0 0 0 0 0.06 0" in="shadowOffsetOuter1"/></filter><path d="M13 6.25a.7.7 0 0 1 .18-.43l.14-.14c.1-.1.1-.26 0-.36l-.14-.14a.69.69 0 0 1-.18-.43v-.5c0-.14.1-.25.25-.25h.5c.14 0 .25.1.25.25v.5c0 .14.05.16.12.02l.26-.54a.46.46 0 0 1 .37-.23h1c.14 0 .25.12.25.25 0 .14-.1.25-.25.25h-.5a.25.25 0 0 0-.25.25c0 .14.1.25.25.25h.5c.14 0 .25.1.25.25v1.5c0 .14-.1.25-.25.25h-.5a.25.25 0 0 1-.25-.25v-.5c0-.14.12-.25.25-.25.14 0 .25-.12.25-.25 0-.14-.1-.25-.25-.25h-.5a.25.25 0 0 0-.25.25v1c0 .14-.12.25-.25.25a.25.25 0 0 1-.25-.25v-.5a.25.25 0 0 0-.25-.25c-.14 0-.25.1-.25.25v.5c0 .14-.12.25-.25.25a.25.25 0 0 1-.25-.25v-.5z" id="l"/><filter x="-50%" y="-50%" width="200%" height="200%" filterUnits="objectBoundingBox" id="k"><feOffset dy=".5" in="SourceAlpha" result="shadowOffsetOuter1"/><feColorMatrix values="0 0 0 0 0 0 0 0 0 0 0 0 0 0 0 0 0 0 0.06 0" in="shadowOffsetOuter1"/></filter><path d="M12 4.75a.7.7 0 0 1-.18.43l-.14.14c-.1.1-.1.26 0 .36l.14.14c.1.1.18.29.18.43v.5c0 .14-.1.25-.25.25h-.5a.25.25 0 0 1-.25-.25v-.5c0-.14-.05-.16-.12-.02l-.26.54a.46.46 0 0 1-.37.23h-1A.25.25 0 0 1 9 6.75c0-.14.1-.25.25-.25h.5c.14 0 .25-.12.25-.25 0-.14-.1-.25-.25-.25h-.5A.25.25 0 0 1 9 5.75v-1.5c0-.14.1-.25.25-.25h.5c.14 0 .25.1.25.25v.5c0 .14-.12.25-.25.25a.25.25 0 0 0-.25.25c0 .14.1.25.25.25h.5c.14 0 .25-.12.25-.25v-1c0-.14.12-.25.25-.25.14 0 .25.1.25.25v.5c0 .14.12.25.25.25.14 0 .25-.1.25-.25v-.5c0-.14.12-.25.25-.25.14 0 .25.1.25.25v.5z" id="n"/><filter x="-50%" y="-50%" width="200%" height="200%" filterUnits="objectBoundingBox" id="m"><feOffset dy=".5" in="SourceAlpha" result="shadowOffsetOuter1"/><feColorMatrix values="0 0 0 0 0 0 0 0 0 0 0 0 0 0 0 0 0 0 0.06 0" in="shadowOffsetOuter1"/></filter></defs><g filter="url(#a)" transform="translate(1 1)" fill="none" fill-rule="evenodd"><mask id="f" fill="#fff"><use xlink:href="#b"/></mask><use fill="#000" filter="url(#c)" xlink:href="#b"/><use fill="url(#d)" xlink:href="#b"/><path fill="url(#e)" mask="url(#f)" d="M0 0h21v15H0z"/><g mask="url(#f)"><use fill="#000" filter="url(#g)" xlink:href="#h"/><use fill="url(#d)" xlink:href="#h"/></g><g mask="url(#f)"><use fill="#000" filter="url(#i)" xlink:href="#j"/><use fill="url(#d)" xlink:href="#j"/></g><g mask="url(#f)"><use fill="#000" filter="url(#k)" xlink:href="#l"/><use fill="url(#d)" xlink:href="#l"/></g><g mask="url(#f)"><use fill="#000" filter="url(#m)" xlink:href="#n"/><use fill="url(#d)" xlink:href="#n"/></g><rect mask="url(#f)" width="21" height="15" rx="1.5"/></g></svg>