<svg width="23" height="17" viewBox="0 0 23 17" xmlns="http://www.w3.org/2000/svg" xmlns:xlink="http://www.w3.org/1999/xlink"><title>SK</title><defs><linearGradient x1="50%" y1="0%" x2="50%" y2="100%" id="d"><stop stop-color="#FFF" offset="0%"/><stop stop-color="#F0F0F0" offset="100%"/></linearGradient><rect id="b" width="21" height="15" rx="1.5"/><filter x="-50%" y="-50%" width="200%" height="200%" filterUnits="objectBoundingBox" id="c"><feOffset dy=".5" in="SourceAlpha" result="shadowOffsetOuter1"/><feGaussianBlur stdDeviation=".5" in="shadowOffsetOuter1" result="shadowBlurOuter1"/><feColorMatrix values="0 0 0 0 0 0 0 0 0 0 0 0 0 0 0 0 0 0 0.16 0" in="shadowBlurOuter1"/></filter><linearGradient x1="50%" y1="0%" x2="50%" y2="100%" id="h"><stop stop-color="#0C47B7" offset="0%"/><stop stop-color="#073DA4" offset="100%"/></linearGradient><path id="g" d="M0 5h21v5H0z"/><filter x="-50%" y="-50%" width="200%" height="200%" filterUnits="objectBoundingBox" id="f"><feMorphology radius=".25" operator="dilate" in="SourceAlpha" result="shadowSpreadOuter1"/><feOffset in="shadowSpreadOuter1" result="shadowOffsetOuter1"/><feColorMatrix values="0 0 0 0 0 0 0 0 0 0 0 0 0 0 0 0 0 0 0.06 0" in="shadowOffsetOuter1"/></filter><linearGradient x1="50%" y1="0%" x2="50%" y2="100%" id="k"><stop stop-color="#E53B35" offset="0%"/><stop stop-color="#D32E28" offset="100%"/></linearGradient><path id="j" d="M0 10h21v5H0z"/><filter x="-50%" y="-50%" width="200%" height="200%" filterUnits="objectBoundingBox" id="i"><feMorphology radius=".25" operator="dilate" in="SourceAlpha" result="shadowSpreadOuter1"/><feOffset in="shadowSpreadOuter1" result="shadowOffsetOuter1"/><feColorMatrix values="0 0 0 0 0 0 0 0 0 0 0 0 0 0 0 0 0 0 0.06 0" in="shadowOffsetOuter1"/></filter><path id="m" d="M0 0h21v5H0z"/><filter x="-50%" y="-50%" width="200%" height="200%" filterUnits="objectBoundingBox" id="l"><feMorphology radius=".25" operator="dilate" in="SourceAlpha" result="shadowSpreadOuter1"/><feOffset in="shadowSpreadOuter1" result="shadowOffsetOuter1"/><feColorMatrix values="0 0 0 0 0 0 0 0 0 0 0 0 0 0 0 0 0 0 0.06 0" in="shadowOffsetOuter1"/></filter><linearGradient x1="50%" y1="0%" x2="50%" y2="100%" id="o"><stop stop-color="#F73744" offset="0%"/><stop stop-color="#EC212F" offset="100%"/></linearGradient><linearGradient x1="50%" y1="0%" x2="50%" y2="100%" id="p"><stop stop-color="#FFF" offset="0%"/><stop stop-color="#F0F0F0" offset="100%"/></linearGradient><path d="M.71 1c.02-.55.49-1 1.04-1h4.5c.55 0 1.02.45 1.04 1l.17 4.5c.02.55-.3 1.29-.72 1.65l-1.6 1.37c-.63.54-1.66.54-2.29 0l-1.6-1.37a2.34 2.34 0 0 1-.7-1.65L.7 1z" id="a"/><filter x="-50%" y="-50%" width="200%" height="200%" filterUnits="objectBoundingBox" id="n"><feMorphology radius="1" operator="dilate" in="SourceAlpha" result="shadowSpreadOuter1"/><feOffset dy="1" in="shadowSpreadOuter1" result="shadowOffsetOuter1"/><feComposite in="shadowOffsetOuter1" in2="SourceAlpha" operator="out" result="shadowOffsetOuter1"/><feColorMatrix values="0 0 0 0 0 0 0 0 0 0 0 0 0 0 0 0 0 0 0.06 0" in="shadowOffsetOuter1"/></filter><mask id="q" x="-1" y="-1" width="8.92" height="10.92"><path fill="#fff" d="M-.46-1h8.92V9.92H-.46z"/><use xlink:href="#a"/></mask><path d="M3.5 5.25A.25.25 0 0 0 3.25 5h-1A.25.25 0 0 1 2 4.75v-.5c0-.14.12-.25.25-.25h1c.14 0 .25-.1.25-.25v-.5c0-.14-.1-.25-.25-.25h-.5a.25.25 0 0 1-.25-.25v-.5c0-.14.1-.25.25-.25h.5c.14 0 .25-.1.25-.25v-.5c0-.14.1-.25.25-.25h.5c.14 0 .25.1.25.25v.5c0 .14.1.25.25.25h.5c.14 0 .25.1.25.25v.5c0 .14-.1.25-.25.25h-.5c-.14 0-.25.1-.25.25v.5c0 .14.12.25.25.25h1c.14 0 .25.1.25.25v.5c0 .14-.12.25-.25.25h-1c-.14 0-.25.1-.25.25v1.5c0 .14-.1.25-.25.25h-.5a.25.25 0 0 1-.25-.25v-1.5z" id="t"/><filter x="-50%" y="-50%" width="200%" height="200%" filterUnits="objectBoundingBox" id="s"><feOffset dy=".5" in="SourceAlpha" result="shadowOffsetOuter1"/><feColorMatrix values="0 0 0 0 0 0 0 0 0 0 0 0 0 0 0 0 0 0 0.06 0" in="shadowOffsetOuter1"/></filter></defs><g transform="translate(1 1)" fill="none" fill-rule="evenodd"><mask id="e" fill="#fff"><use xlink:href="#b"/></mask><use fill="#000" filter="url(#c)" xlink:href="#b"/><use fill="url(#d)" xlink:href="#b"/><g mask="url(#e)"><use fill="#000" filter="url(#f)" xlink:href="#g"/><use fill="url(#h)" xlink:href="#g"/></g><g mask="url(#e)"><use fill="#000" filter="url(#i)" xlink:href="#j"/><use fill="url(#k)" xlink:href="#j"/></g><g mask="url(#e)"><use fill="#000" filter="url(#l)" xlink:href="#m"/><use fill="url(#d)" xlink:href="#m"/></g><g mask="url(#e)"><g transform="translate(3.5 3)"><mask id="r" fill="#fff"><use xlink:href="#a"/></mask><use fill="#000" filter="url(#n)" xlink:href="#a"/><use fill="url(#o)" xlink:href="#a"/><use stroke="url(#p)" mask="url(#q)" stroke-width="2" xlink:href="#a"/><g mask="url(#r)"><use fill="#000" filter="url(#s)" xlink:href="#t"/><use fill="url(#d)" xlink:href="#t"/></g><path d="M4.9 7.07c1.22.2 2.1.76 2.1 1.43C7 9.33 5.66 10 4 10s-3-.67-3-1.5c0-.67.88-1.24 2.1-1.43a1 1 0 0 1 1.8 0z" fill="#1251A1" mask="url(#r)"/></g></g><rect mask="url(#e)" width="21" height="15" rx="1.5"/></g></svg>