<svg width="23" height="17" viewBox="0 0 23 17" xmlns="http://www.w3.org/2000/svg" xmlns:xlink="http://www.w3.org/1999/xlink"><title>TM</title><defs><linearGradient x1="50%" y1="0%" x2="50%" y2="100%" id="c"><stop stop-color="#FFF" offset="0%"/><stop stop-color="#F0F0F0" offset="100%"/></linearGradient><rect id="a" width="21" height="15" rx="1.5"/><filter x="-50%" y="-50%" width="200%" height="200%" filterUnits="objectBoundingBox" id="b"><feOffset dy=".5" in="SourceAlpha" result="shadowOffsetOuter1"/><feGaussianBlur stdDeviation=".5" in="shadowOffsetOuter1" result="shadowBlurOuter1"/><feColorMatrix values="0 0 0 0 0 0 0 0 0 0 0 0 0 0 0 0 0 0 0.16 0" in="shadowBlurOuter1"/></filter><linearGradient x1="50%" y1="0%" x2="50%" y2="100%" id="d"><stop stop-color="#30C375" offset="0%"/><stop stop-color="#28AE67" offset="100%"/></linearGradient><linearGradient x1="50%" y1="0%" x2="50%" y2="100%" id="f"><stop stop-color="#DE404F" offset="0%"/><stop stop-color="#CA3745" offset="100%"/></linearGradient><ellipse id="g" cx="1.5" cy="1" rx="1.5" ry="1"/><ellipse id="i" cx="1.5" cy="1" rx="1.5" ry="1"/><ellipse id="k" cx="1.5" cy="1" rx="1.5" ry="1"/><ellipse id="m" cx="1.5" cy=".5" rx="1.5" ry=".5"/><ellipse id="n" cx="1.5" cy="1" rx="1.5" ry="1"/><path d="M11.12 3.18a.5.5 0 1 0 .76.64.5.5 0 0 0-.76-.64zm-1.3 1.94a.5.5 0 1 0-.64.76.5.5 0 0 0 .64-.76zm-1-1a.5.5 0 1 0-.64.76.5.5 0 0 0 .64-.76zm2-2a.5.5 0 1 0-.64.76.5.5 0 0 0 .64-.76zm-.5 1.5a.5.5 0 1 0-.64.76.5.5 0 0 0 .64-.76z" id="q"/><filter x="-50%" y="-50%" width="200%" height="200%" filterUnits="objectBoundingBox" id="p"><feOffset dy=".5" in="SourceAlpha" result="shadowOffsetOuter1"/><feColorMatrix values="0 0 0 0 0 0 0 0 0 0 0 0 0 0 0 0 0 0 0.06 0" in="shadowOffsetOuter1"/></filter><path d="M13.1 7.09a3.05 3.05 0 0 1-4.62-.37 3.05 3.05 0 0 0 4.26-4.26l.37.31a3.05 3.05 0 0 1 0 4.32z" id="s"/><filter x="-50%" y="-50%" width="200%" height="200%" filterUnits="objectBoundingBox" id="r"><feOffset dy=".5" in="SourceAlpha" result="shadowOffsetOuter1"/><feColorMatrix values="0 0 0 0 0 0 0 0 0 0 0 0 0 0 0 0 0 0 0.06 0" in="shadowOffsetOuter1"/></filter></defs><g transform="translate(1 1)" fill="none" fill-rule="evenodd"><mask id="e" fill="#fff"><use xlink:href="#a"/></mask><use fill="#000" filter="url(#b)" xlink:href="#a"/><use fill="url(#c)" xlink:href="#a"/><path fill="url(#d)" mask="url(#e)" d="M0 0h21v15H0z"/><path fill="url(#f)" mask="url(#e)" d="M3 0h3v15H3z"/><g mask="url(#e)"><g transform="translate(3 1)"><mask id="h" fill="#fff"><use xlink:href="#g"/></mask><use fill="#FFF" xlink:href="#g"/><circle fill="#DD404F" mask="url(#h)" cx="1.5" cy="1" r=".5"/><path fill="#FBAF29" mask="url(#h)" d="M0 0h1.5v1H0zm1.5 1H3v1H1.5z"/></g></g><g mask="url(#e)"><g transform="translate(3 12)"><mask id="j" fill="#fff"><use xlink:href="#i"/></mask><use fill="#FFF" xlink:href="#i"/><circle fill="#DD404F" mask="url(#j)" cx="1.5" cy="1" r=".5"/><path fill="#FBAF29" mask="url(#j)" d="M0 0h1.5v1H0zm1.5 1H3v1H1.5z"/></g></g><g mask="url(#e)"><g transform="translate(3 7)"><mask id="l" fill="#fff"><use xlink:href="#k"/></mask><use fill="#28AE67" xlink:href="#k"/><ellipse fill="#DD404F" mask="url(#l)" cx="1.5" cy="1" rx="1" ry=".5"/></g></g><g mask="url(#e)"><use fill="#28AE67" xlink:href="#m" transform="translate(3 10)"/></g><g mask="url(#e)"><g transform="translate(3 4)"><mask id="o" fill="#fff"><use xlink:href="#n"/></mask><use fill="#FBAF29" xlink:href="#n"/><circle fill="#DD404F" mask="url(#o)" cx="1.5" cy="1" r=".5"/><path fill="#28AE67" mask="url(#o)" d="M0 0h1v2H0zm2 0h1v2H2z"/></g></g><g mask="url(#e)"><use fill="#000" filter="url(#p)" xlink:href="#q"/><use fill="url(#c)" xlink:href="#q"/></g><g mask="url(#e)"><use fill="#000" filter="url(#r)" xlink:href="#s"/><use fill="url(#c)" xlink:href="#s"/></g><rect mask="url(#e)" width="21" height="15" rx="1.5"/></g></svg>