<svg width="23" height="17" viewBox="0 0 23 17" xmlns="http://www.w3.org/2000/svg" xmlns:xlink="http://www.w3.org/1999/xlink"><title>UY</title><defs><linearGradient x1="50%" y1="0%" x2="50%" y2="100%" id="c"><stop stop-color="#FFF" offset="0%"/><stop stop-color="#F0F0F0" offset="100%"/></linearGradient><rect id="a" width="21" height="15" rx="1.5"/><filter x="-50%" y="-50%" width="200%" height="200%" filterUnits="objectBoundingBox" id="b"><feOffset dy=".5" in="SourceAlpha" result="shadowOffsetOuter1"/><feGaussianBlur stdDeviation=".5" in="shadowOffsetOuter1" result="shadowBlurOuter1"/><feColorMatrix values="0 0 0 0 0 0 0 0 0 0 0 0 0 0 0 0 0 0 0.16 0" in="shadowBlurOuter1"/></filter><linearGradient x1="50%" y1="0%" x2="50%" y2="100%" id="g"><stop stop-color="#0E4CC6" offset="0%"/><stop stop-color="#073DA6" offset="100%"/></linearGradient><path id="f" d="M0 0h21v15H0z"/><filter x="-50%" y="-50%" width="200%" height="200%" filterUnits="objectBoundingBox" id="e"><feOffset dy=".5" in="SourceAlpha" result="shadowOffsetOuter1"/><feGaussianBlur stdDeviation=".5" in="shadowOffsetOuter1" result="shadowBlurOuter1"/><feColorMatrix values="0 0 0 0 0 0 0 0 0 0 0 0 0 0 0 0 0 0 0.16 0" in="shadowBlurOuter1"/></filter><path d="M10 0h11v2H10V0zm0 4h11v2H10V4zm0 4h11v2H10V8zM0 12h21v2H0v-2zM0 0h10v10H0V0z" id="i"/><filter x="-50%" y="-50%" width="200%" height="200%" filterUnits="objectBoundingBox" id="h"><feOffset dy=".5" in="SourceAlpha" result="shadowOffsetOuter1"/><feColorMatrix values="0 0 0 0 0 0 0 0 0 0 0 0 0 0 0 0 0 0 0.06 0" in="shadowOffsetOuter1"/></filter><linearGradient x1="50%" y1="0%" x2="50%" y2="100%" id="j"><stop stop-color="#FED443" offset="0%"/><stop stop-color="#FCD036" offset="100%"/></linearGradient></defs><g fill="none" fill-rule="evenodd"><g transform="translate(1 1)"><mask id="d" fill="#fff"><use xlink:href="#a"/></mask><use fill="#000" filter="url(#b)" xlink:href="#a"/><use fill="url(#c)" xlink:href="#a"/><g mask="url(#d)"><use fill="#000" filter="url(#e)" xlink:href="#f"/><use fill="url(#g)" xlink:href="#f"/></g><g mask="url(#d)"><use fill="#000" filter="url(#h)" xlink:href="#i"/><use fill="url(#c)" xlink:href="#i"/></g><path d="M5 7l-.67.99-.17-1.19-1.03.6.36-1.14-1.2.1.83-.87L2 5.06l1.12-.43-.82-.87 1.2.1-.37-1.14 1.03.6.17-1.18.67 1 .67-1 .17 1.19 1.03-.61-.36 1.14 1.2-.1-.83.87L8 5.06l-1.12.43.82.87-1.2-.1.37 1.15-1.03-.61-.17 1.19-.67-1zm0-.03a1.9 1.9 0 1 0 0-3.82 1.9 1.9 0 0 0 0 3.82zm0-.47a1.5 1.5 0 1 0 0-3 1.5 1.5 0 0 0 0 3z" fill="url(#j)" mask="url(#d)"/><rect mask="url(#d)" width="21" height="15" rx="1.5"/></g><path d="M5.25 6a.75.75 0 0 0 .75.75c.3 0 .56-.17.68-.43.04-.1.12-.18.12-.32" stroke="#C7A326" stroke-width=".25" stroke-linecap="round"/><circle fill="#C6A326" cx="6.5" cy="5.5" r=".25"/><circle fill="#C6A326" cx="5.5" cy="5.5" r=".25"/></g></svg>