<svg width="23" height="17" viewBox="0 0 23 17" xmlns="http://www.w3.org/2000/svg" xmlns:xlink="http://www.w3.org/1999/xlink"><title>VG</title><defs><linearGradient x1="50%" y1="0%" x2="50%" y2="100%" id="d"><stop stop-color="#FFF" offset="0%"/><stop stop-color="#F0F0F0" offset="100%"/></linearGradient><rect id="b" width="21" height="15" rx="1.5"/><filter x="-50%" y="-50%" width="200%" height="200%" filterUnits="objectBoundingBox" id="c"><feOffset dy=".5" in="SourceAlpha" result="shadowOffsetOuter1"/><feGaussianBlur stdDeviation=".5" in="shadowOffsetOuter1" result="shadowBlurOuter1"/><feColorMatrix values="0 0 0 0 0 0 0 0 0 0 0 0 0 0 0 0 0 0 0.16 0" in="shadowBlurOuter1"/></filter><linearGradient x1="50%" y1="0%" x2="50%" y2="100%" id="h"><stop stop-color="#06319C" offset="0%"/><stop stop-color="#00247E" offset="100%"/></linearGradient><path id="g" d="M0 0h21v15H0z"/><filter x="-50%" y="-50%" width="200%" height="200%" filterUnits="objectBoundingBox" id="f"><feOffset dy=".5" in="SourceAlpha" result="shadowOffsetOuter1"/><feGaussianBlur stdDeviation=".5" in="shadowOffsetOuter1" result="shadowBlurOuter1"/><feColorMatrix values="0 0 0 0 0 0 0 0 0 0 0 0 0 0 0 0 0 0 0.16 0" in="shadowBlurOuter1"/></filter><linearGradient x1="50%" y1="0%" x2="50%" y2="100%" id="k"><stop stop-color="#008338" offset="0%"/><stop stop-color="#00612A" offset="100%"/></linearGradient><path d="M0 3.5V1a1 1 0 0 1 1-1h3a1 1 0 0 1 1 1v2.5C5 6 2.5 7 2.5 7S0 6 0 3.5z" id="i"/><filter x="-50%" y="-50%" width="200%" height="200%" filterUnits="objectBoundingBox" id="j"><feOffset dy=".5" in="SourceAlpha" result="shadowOffsetOuter1"/><feColorMatrix values="0 0 0 0 0 0 0 0 0 0 0 0 0 0 0 0 0 0 0.06 0" in="shadowOffsetOuter1"/></filter><linearGradient x1="50%" y1="0%" x2="50%" y2="100%" id="o"><stop stop-color="#FFD033" offset="0%"/><stop stop-color="#FEC403" offset="100%"/></linearGradient><path d="M1.5 2a.5.5 0 1 0 0-1 .5.5 0 0 0 0 1zm0 1a.5.5 0 1 0 0-1 .5.5 0 0 0 0 1zm0 1a.5.5 0 1 0 0-1 .5.5 0 0 0 0 1zm0 1a.5.5 0 1 0 0-1 .5.5 0 0 0 0 1zm2 0a.5.5 0 1 0 0-1 .5.5 0 0 0 0 1zm0-1a.5.5 0 1 0 0-1 .5.5 0 0 0 0 1zm0-1a.5.5 0 1 0 0-1 .5.5 0 0 0 0 1zm0-1a.5.5 0 1 0 0-1 .5.5 0 0 0 0 1z" id="n"/><filter x="-50%" y="-50%" width="200%" height="200%" filterUnits="objectBoundingBox" id="m"><feOffset dy=".5" in="SourceAlpha" result="shadowOffsetOuter1"/><feColorMatrix values="0 0 0 0 0 0 0 0 0 0 0 0 0 0 0 0 0 0 0.06 0" in="shadowOffsetOuter1"/></filter><ellipse id="q" cx="2.5" cy="3" rx=".5" ry="1.5"/><filter x="-50%" y="-50%" width="200%" height="200%" filterUnits="objectBoundingBox" id="p"><feOffset dy=".5" in="SourceAlpha" result="shadowOffsetOuter1"/><feColorMatrix values="0 0 0 0 0 0 0 0 0 0 0 0 0 0 0 0 0 0 0.06 0" in="shadowOffsetOuter1"/></filter><path d="M12.5 10c0 .95 1.37 1.5 3 1.5s3-.55 3-1.5a.5.5 0 1 0-1 0c0 .01-.12.12-.42.24-.4.16-.97.26-1.58.26-.61 0-1.18-.1-1.58-.26a1.1 1.1 0 0 1-.42-.24.5.5 0 1 0-1 0z" id="s"/><filter x="-50%" y="-50%" width="200%" height="200%" filterUnits="objectBoundingBox" id="r"><feOffset dy=".5" in="SourceAlpha" result="shadowOffsetOuter1"/><feColorMatrix values="0 0 0 0 0 0 0 0 0 0 0 0 0 0 0 0 0 0 0.06 0" in="shadowOffsetOuter1"/></filter><linearGradient x1="50%" y1="0%" x2="50%" y2="100%" id="t"><stop stop-color="#DB1E36" offset="0%"/><stop stop-color="#D51931" offset="100%"/></linearGradient><path d="M3.5 3L0 0h.5L4 2.5h1L9 0v.25c0 .14-.09.31-.2.4L5.5 3v1l3.31 2.84c.1.09.07.16-.06.16a.9.9 0 0 1-.46-.15L5 4.5H4L0 7v-.5L3.5 4V3z" id="a"/><mask id="u" x="-.5" y="-.5" width="10" height="8"><path fill="#fff" d="M-.5-.5h10v8h-10z"/><use xlink:href="#a"/></mask></defs><g transform="translate(1 1)" fill="none" fill-rule="evenodd"><mask id="e" fill="#fff"><use xlink:href="#b"/></mask><use fill="#000" filter="url(#c)" xlink:href="#b"/><use fill="url(#d)" xlink:href="#b"/><g mask="url(#e)"><use fill="#000" filter="url(#f)" xlink:href="#g"/><use fill="url(#h)" xlink:href="#g"/></g><g mask="url(#e)"><g transform="translate(13 4)"><mask id="l" fill="#fff"><use xlink:href="#i"/></mask><use fill="#000" filter="url(#j)" xlink:href="#i"/><use fill="url(#k)" xlink:href="#i"/><g mask="url(#l)"><use fill="#000" filter="url(#m)" xlink:href="#n"/><use fill="url(#o)" xlink:href="#n"/></g><g mask="url(#l)"><use fill="#000" filter="url(#p)" xlink:href="#q"/><use fill="url(#d)" xlink:href="#q"/></g></g></g><g mask="url(#e)"><use fill="#000" filter="url(#r)" xlink:href="#s"/><use fill="url(#o)" xlink:href="#s"/></g><g mask="url(#e)"><use fill="url(#t)" xlink:href="#a"/><use stroke="#FFF" mask="url(#u)" xlink:href="#a"/></g><path d="M0 2.5v2h3.5V7c0 .28.21.5.5.5h1a.5.5 0 0 0 .5-.5V4.5h3.51c.27 0 .49-.21.49-.5V3a.5.5 0 0 0-.49-.5H5.5V0h-2v2.5H0z" fill="url(#d)" mask="url(#e)"/><path fill="url(#t)" mask="url(#e)" d="M0 3h4V0h1v3h4v1H5v3H4V4H0z"/><rect mask="url(#e)" width="21" height="15" rx="1.5"/></g></svg>