<svg width="23" height="17" viewBox="0 0 23 17" xmlns="http://www.w3.org/2000/svg" xmlns:xlink="http://www.w3.org/1999/xlink"><title>WW</title><defs><linearGradient x1="50%" y1="0%" x2="50%" y2="100%" id="c"><stop stop-color="#FFF" offset="0%"/><stop stop-color="#F0F0F0" offset="100%"/></linearGradient><rect id="a" width="21" height="15" rx="1.5"/><filter x="-50%" y="-50%" width="200%" height="200%" filterUnits="objectBoundingBox" id="b"><feOffset dy=".5" in="SourceAlpha" result="shadowOffsetOuter1"/><feGaussianBlur stdDeviation=".5" in="shadowOffsetOuter1" result="shadowBlurOuter1"/><feColorMatrix values="0 0 0 0 0 0 0 0 0 0 0 0 0 0 0 0 0 0 0.16 0" in="shadowBlurOuter1"/></filter><linearGradient x1="50%" y1="0%" x2="50%" y2="100%" id="d"><stop stop-color="#19BFBF" offset="0%"/><stop stop-color="#10ACAC" offset="100%"/></linearGradient><path d="M10.21 12a4.57 4.57 0 0 0 .58 0c.69-.82 1.13-2.31 1.2-4H9c.07 1.69.51 3.18 1.2 4zm-1.37-.32A4.5 4.5 0 0 1 6.03 8H8a9.2 9.2 0 0 0 .83 3.68zm1.37-8.67a4.57 4.57 0 0 1 .58 0c.69.81 1.13 2.3 1.2 3.99H9c.07-1.69.51-3.18 1.2-4zm-1.37.3A4.5 4.5 0 0 0 6.03 7H8a9.2 9.2 0 0 1 .83-3.68zm3.32 8.37A4.5 4.5 0 0 0 14.97 8H13a9.37 9.37 0 0 1-.83 3.68zm0-8.36c1.52.6 2.63 2 2.81 3.68H13a9.37 9.37 0 0 0-.83-3.68zM10.5 13a5.5 5.5 0 1 0 0-11 5.5 5.5 0 0 0 0 11z" id="g"/><filter x="-50%" y="-50%" width="200%" height="200%" filterUnits="objectBoundingBox" id="f"><feOffset dy=".5" in="SourceAlpha" result="shadowOffsetOuter1"/><feColorMatrix values="0 0 0 0 0 0 0 0 0 0 0 0 0 0 0 0 0 0 0.06 0" in="shadowOffsetOuter1"/></filter></defs><g transform="translate(1 1)" fill="none" fill-rule="evenodd"><mask id="e" fill="#fff"><use xlink:href="#a"/></mask><use fill="#000" filter="url(#b)" xlink:href="#a"/><use fill="url(#c)" xlink:href="#a"/><path fill="url(#d)" mask="url(#e)" d="M0 0h21v15H0z"/><g mask="url(#e)"><use fill="#000" filter="url(#f)" xlink:href="#g"/><use fill="url(#c)" xlink:href="#g"/></g><rect mask="url(#e)" width="21" height="15" rx="1.5"/></g></svg>